<svg id="图层_1" data-name="图层 1" xmlns="http://www.w3.org/2000/svg" xmlns:xlink="http://www.w3.org/1999/xlink" viewBox="0 0 1500 1500"><defs><style>.cls-1{fill:url(#未命名的渐变_16);}.cls-2{fill:url(#未命名的渐变_16-2);}</style><linearGradient id="未命名的渐变_16" x1="191.26837" y1="1237.86646" x2="1058.91574" y2="683.23112" gradientUnits="userSpaceOnUse"><stop offset="0" stop-color="#50bd9b"/><stop offset="1" stop-color="#b5f6c9"/></linearGradient><linearGradient id="未命名的渐变_16-2" x1="242.08663" y1="1317.36433" x2="1109.734" y2="762.72899" xlink:href="#未命名的渐变_16"/></defs><title>头像</title><path class="cls-1" d="M1241.09389,469.16014h-98.94533V358.71092C1142.14856,171.95312,966.23023,20,750,20,533.7889,20,357.8711,171.95312,357.8711,358.71092V469.16014H258.92578c-88.6525,0-160.76184,72.10941-160.76184,160.76171v689.31631c0,88.6525,72.10934,160.76184,160.76184,160.76184h982.16811c88.63283,0,160.74217-72.10934,160.74217-160.76184V629.92185C1401.83606,541.26955,1329.72672,469.16014,1241.09389,469.16014ZM452.73458,358.71092c0-134.47262,133.35929-243.86717,297.26542-243.86717,163.94546,0,297.32388,109.39455,297.32388,243.86717V469.16014H452.73458Zm854.25766,960.52724a65.98412,65.98412,0,0,1-65.89835,65.89862H258.92578a65.98378,65.98378,0,0,1-65.89836-65.89862V629.92185a65.98361,65.98361,0,0,1,65.89836-65.89842h982.16811a65.984,65.984,0,0,1,65.89835,65.89842Z"/><path class="cls-2" d="M750,780.60544a47.47039,47.47039,0,0,0-47.42164,47.42191v329.31637a47.42164,47.42164,0,1,0,94.84328,0V828.02735A47.47039,47.47039,0,0,0,750,780.60544Z"/></svg>