<svg id="图层_1" data-name="图层 1" xmlns="http://www.w3.org/2000/svg" xmlns:xlink="http://www.w3.org/1999/xlink" viewBox="0 0 1500 1500"><defs><style>.cls-1{fill:url(#未命名的渐变_16);}.cls-2{fill:url(#未命名的渐变_16-2);}.cls-3{fill:url(#未命名的渐变_16-3);}</style><linearGradient id="未命名的渐变_16" x1="35.85599" y1="750" x2="1464.14401" y2="750" gradientUnits="userSpaceOnUse"><stop offset="0" stop-color="#50bd9b"/><stop offset="1" stop-color="#b5f6c9"/></linearGradient><linearGradient id="未命名的渐变_16-2" x1="595.4983" y1="833.58366" x2="895.34531" y2="833.58366" xlink:href="#未命名的渐变_16"/><linearGradient id="未命名的渐变_16-3" x1="701.29957" y1="934.69728" x2="921.56479" y2="934.69728" xlink:href="#未命名的渐变_16"/></defs><title>头像</title><g id="爱心听力"><path class="cls-1" d="M1464.144,556.88656c0-209.972-170.82628-380.79824-380.79824-380.79824-143.3058,0-268.36942,79.55916-333.34411,196.83734C685.027,255.64748,559.96,176.08832,416.65423,176.08832c-209.972,0-380.79824,170.82628-380.79824,380.79824A381.80062,381.80062,0,0,0,78.09666,731.1587c31.31886,70.27505,82.05914,143.06663,150.96462,216.61665l-5.04879,5.04879a83.26744,83.26744,0,0,0,117.75815,117.75774l68.43545-68.43545a83.21691,83.21691,0,0,0-113.8042-121.33227C235.382,815.35784,190.95994,751.70762,164.286,691.39732q-.61073-1.38033-1.31081-2.72424a282.54844,282.54844,0,0,1-32.21095-131.78652c0-157.63869,128.25128-285.89,285.89-285.89,157.45,0,285.57883,127.92358,285.89329,285.12533v.62893l-.02317.7183c-.03641.993-.0662,1.98939-.07944,2.98905a47.558,47.558,0,1,0,95.11018,0l-.0993-3.57164c0-157.63869,128.248-285.89,285.89-285.89s285.89,128.25128,285.89,285.74433l-.0993,3.71728c-.01324,1.142.01324,2.284.08275,3.41937-1.81726,166.90253-163.582,335.7088-316.34821,458.1359a173.25038,173.25038,0,1,0,50.59215,81.01272C1342.7894,913.72852,1464.144,731.53191,1464.144,561.02424c0-.59583-.00993-1.18834-.0331-1.78086C1464.13077,558.46219,1464.144,557.67438,1464.144,556.88656Z"/><path class="cls-2" d="M629.79731,951.75952a33.89462,33.89462,0,0,1-33.7634-31.35694,192.77128,192.77128,0,0,1,2.423-47.96058c18.19914-102.96846,115.61318-172.14041,217.09538-154.20277a183.95973,183.95973,0,0,1,63.43217,23.79989A33.89491,33.89491,0,1,1,843.90364,800.046,116.39715,116.39715,0,0,0,803.755,784.99809c-64.71981-11.4597-126.8511,33.08482-138.53919,99.23793a124.98477,124.98477,0,0,0-1.58225,31.08881,33.8926,33.8926,0,0,1-31.26094,36.33869C631.50865,951.72972,630.65133,951.75952,629.79731,951.75952Z"/><path class="cls-3" d="M735.19541,1024.08934a33.89538,33.89538,0,0,1-33.89581-33.87595c-.02648-44.83582,21.549-87.96029,57.71887-115.3583,38.14934-28.89751,87.103-36.93452,137.84076-22.63473a33.89678,33.89678,0,0,1-18.39775,65.24944c-38.18906-10.7745-63.77973.26481-78.50985,11.42328-19.04984,14.42889-30.87365,37.911-30.86041,61.28058a33.89538,33.89538,0,0,1-33.87595,33.91568Z"/></g></svg>