<svg id="图层_1" data-name="图层 1" xmlns="http://www.w3.org/2000/svg" xmlns:xlink="http://www.w3.org/1999/xlink" viewBox="0 0 1500 1500"><defs><style>.cls-1{fill:none;}.cls-2{fill:url(#未命名的渐变_16);}.cls-3{fill:url(#未命名的渐变_16-2);}</style><linearGradient id="未命名的渐变_16" x1="19.70087" y1="3888" x2="1480.29913" y2="3888" gradientTransform="matrix(1, 0, 0, -1, 0, 4638)" gradientUnits="userSpaceOnUse"><stop offset="0" stop-color="#50bd9b"/><stop offset="1" stop-color="#b5f6c9"/></linearGradient><linearGradient id="未命名的渐变_16-2" x1="19.70087" y1="3980.56371" x2="1480.29919" y2="3980.56371" xlink:href="#未命名的渐变_16"/></defs><title>头像</title><path class="cls-1" d="M987.88675,464.74336c-.00341-.28193-.02134-.56044-.02134-.84315,0,.28271-.01764.56122-.02106.84315Z"/><path class="cls-2" d="M1436.428,76.00537a156.81022,156.81022,0,0,0-116.65112-47.56319L819.67133,42.47163a155.61306,155.61306,0,0,0-106.02712,45.673L65.439,736.3496a156.15247,156.15247,0,0,0-.01622,220.82092l468.78817,468.7881a156.3294,156.3294,0,0,0,220.82064,0l489.62867-489.62846a61.43443,61.43443,0,0,0-86.88144-86.88138L668.1504,1339.07717a33.24053,33.24053,0,0,1-47.058,0L152.3042,870.28922a33.28006,33.28006,0,0,1,0-47.0581L800.54159,175.026a33.16249,33.16249,0,0,1,22.60022-9.744l500.08962-14.02945a33.27717,33.27717,0,0,1,34.15273,35.32618l-27.34182,438.95311a61.4264,61.4264,0,1,0,122.61489,7.642L1479.999,194.22078A156.49519,156.49519,0,0,0,1436.428,76.00537Z"/><path class="cls-3" d="M1179.58053,572.03769A203.55967,203.55967,0,0,0,843.94987,359.641c-79.35344,79.35345-79.35344,208.43714,0,287.79059,69.51142,69.51163,177.21715,78.13134,256.19583,25.82654a293.42362,293.42362,0,0,1,205.09678,280.14848,61.43792,61.43792,0,0,0,122.87584,0A416.271,416.271,0,0,0,1179.58053,572.03769Zm-55.796-107.29433c0,74.87961-135.58167,162.692-135.58167,162.692s-100.874-69.5181-128.59546-132.19883a67.951,67.951,0,0,1,115.27072-71.275c13.0086,23.24378,12.967,22.45544,12.967,22.45544s.04155.78834,13.00234-22.448a67.9507,67.9507,0,0,1,122.937,39.93126c0,.28271-.01793.56122-.02134.84315Z"/></svg>