<svg id="图层_1" data-name="图层 1" xmlns="http://www.w3.org/2000/svg" xmlns:xlink="http://www.w3.org/1999/xlink" viewBox="0 0 1500 1500"><defs><style>.cls-1{fill:url(#未命名的渐变_16);}.cls-2{fill:url(#未命名的渐变_16-2);}</style><linearGradient id="未命名的渐变_16" x1="189.49964" y1="1067.0043" x2="1113.46489" y2="544.43379" gradientUnits="userSpaceOnUse"><stop offset="0" stop-color="#50bd9b"/><stop offset="1" stop-color="#b5f6c9"/></linearGradient><linearGradient id="未命名的渐变_16-2" x1="154.2874" y1="1004.74499" x2="1078.25266" y2="482.17448" xlink:href="#未命名的渐变_16"/></defs><title>头像</title><path class="cls-1" d="M750,1485.72383c-405.67563,0-735.72383-330.0482-735.72383-735.72383S344.32437,14.27617,750,14.27617,1485.72383,344.32437,1485.72383,750,1155.67563,1485.72383,750,1485.72383Zm0-1370.66357c-350.10659,0-634.93974,284.83315-634.93974,634.93974S399.89341,1384.93974,750,1384.93974,1384.93974,1100.10659,1384.93974,750,1100.10659,115.06026,750,115.06026Z"/><path class="cls-2" d="M1168.21457,776.84949H743.5435V304.03042a50.392,50.392,0,1,0-100.784,0v517.483c0,.9618.033,1.91559.08616,2.864-.05317.94845-.08616,1.9023-.08616,2.8641a50.38823,50.38823,0,0,0,50.39205,50.39205h475.06307a50.39205,50.39205,0,0,0,0-100.7841Z"/></svg>