<svg id="图层_1" data-name="图层 1" xmlns="http://www.w3.org/2000/svg" xmlns:xlink="http://www.w3.org/1999/xlink" viewBox="0 0 1500 1500"><defs><style>.cls-1{fill:url(#未命名的渐变_16);}.cls-2{fill:url(#未命名的渐变_16-2);}.cls-3{fill:url(#未命名的渐变_16-3);}</style><linearGradient id="未命名的渐变_16" x1="44.71879" y1="749.99533" x2="1455.28121" y2="749.99533" gradientUnits="userSpaceOnUse"><stop offset="0" stop-color="#50bd9b"/><stop offset="1" stop-color="#b5f6c9"/></linearGradient><linearGradient id="未命名的渐变_16-2" x1="775.4986" y1="1232.00465" x2="1455.28121" y2="1232.00465" xlink:href="#未命名的渐变_16"/><linearGradient id="未命名的渐变_16-3" x1="606.5657" y1="1408.27863" x2="1455.28121" y2="1408.27863" xlink:href="#未命名的渐变_16"/></defs><title>头像</title><path class="cls-1" d="M1372.77449,524.088c.46339-.46339.91082-.93844,1.3707-1.40446.23851-.229.48284-.44772.71784-.68253q.911-.91071,1.761-1.85791c50.75957-52.74365,78.65723-122.093,78.65723-195.92633,0-75.684-29.30183-146.66634-82.50516-199.87123-107.91-107.90771-283.48681-107.90927-391.39452,0L135.50126,970.22576c-1.1787,1.17869-2.30681,2.39707-3.40088,3.64045-.98008.83534-1.94225,1.70268-2.86864,2.62906a48.09392,48.09392,0,0,0-13.85409,28.912c-.4132,1.595-.7871,3.20392-1.1003,4.83228l-68.16473,354.554a77.182,77.182,0,0,0,90.38933,90.38933l354.54858-68.164c1.63021-.3132,3.24058-.68749,4.837-1.101a48.09067,48.09067,0,0,0,28.91276-13.85419c.92638-.92638,1.79362-1.88865,2.62935-2.86873,1.24308-1.094,2.46166-2.22209,3.64016-3.40078ZM490.642,1269.58906,231.70645,1010.6535l781.74633-781.74613,258.934,258.93526Zm686.436-1129.413a178.83543,178.83543,0,0,1,127.38157,52.48666,187.20959,187.20959,0,0,1,31.146,221.76425L1085.87629,164.698A179.75589,179.75589,0,0,1,1177.078,140.17607ZM193.63336,1109.21326l198.44879,198.449L146.4,1354.89555Z"/><path class="cls-2" d="M1406.974,1183.69741H823.80585a48.30725,48.30725,0,1,0,0,96.61449H1406.974a48.30725,48.30725,0,0,0,0-96.61449Z"/><path class="cls-3" d="M1406.974,1359.97139h-752.101a48.30725,48.30725,0,0,0,0,96.61449h752.101a48.30725,48.30725,0,0,0,0-96.61449Z"/></svg>