<svg id="图层_1" data-name="图层 1" xmlns="http://www.w3.org/2000/svg" xmlns:xlink="http://www.w3.org/1999/xlink" viewBox="0 0 1500 1500"><defs><style>.cls-1{fill:url(#未命名的渐变_16);}.cls-2{fill:url(#未命名的渐变_16-2);}</style><linearGradient id="未命名的渐变_16" x1="175.7336" y1="1004.93741" x2="953.34848" y2="538.36849" gradientTransform="translate(278.88937)" gradientUnits="userSpaceOnUse"><stop offset="0" stop-color="#50bd9b"/><stop offset="1" stop-color="#b5f6c9"/></linearGradient><linearGradient id="未命名的渐变_16-2" x1="258.02555" y1="1142.09065" x2="1035.64042" y2="675.52172" gradientTransform="matrix(1, 0, 0, 1, 0, 0)" xlink:href="#未命名的渐变_16"/></defs><title>头像</title><path class="cls-1" d="M720.98193,1189.59451c-21.67827-19.66635-55.74188-18.52954-75.87408,2.64709-56.32358,59.17777-138.781,93.02151-226.05941,93.02151A325.18607,325.18607,0,0,1,302.91,1264.28134a56.28173,56.28173,0,0,0-28.44443-2.8257l-143.61876,24.0186,28.0621-107.58854a51.33311,51.33311,0,0,0-10.98956-46.69125c-24.09218-33.82075-25.00234-48.927-25.00234-107.79779,0-89.41622,41.89332-160.3991,127.06041-208.98849,25.55179-14.56714,34.24646-46.70562,19.3509-71.66616-14.9122-24.96063-47.812-33.47026-73.36376-18.90312C139.458,755.97737,101.23861,789.7062,68.33884,842.27435c-34.263,55.00413-52.45016,117.5923-52.45016,181.12231,0,62.27793,1.66782,100.38026,33.24233,151.00646L6.57892,1337.83137a51.30465,51.30465,0,0,0,12.58473,48.39452,54.54312,54.54312,0,0,0,39.4831,16.82439,45.01307,45.01307,0,0,0,8.7112-.74717l210.981-35.17531a439.95347,439.95347,0,0,0,140.70948,22.88189c116.90324,0,228.00455-45.9424,304.64328-126.2968A51.67157,51.67157,0,0,0,720.98193,1189.59451Z"/><path class="cls-2" d="M1493.42109,1140.27443l-69.87268-267.92389c51.68542-77.90228,54.19573-132.72778,54.19573-231.23822a497.89746,497.89746,0,0,0-47.812-213.2771c-30.57238-64.86157-74.12848-123.0813-129.67077-173.00244C1187.04877,152.91212,1036.84675,96.94972,877.16877,96.94972S567.1059,152.91212,454.07624,254.638c-55.5423,49.92115-99.08179,108.157-129.67084,173.00244a499.7142,499.7142,0,0,0,0,426.53785c30.57239,64.86181,74.12854,123.08136,129.67084,173.00244,113.21264,101.92077,263.41461,157.88305,423.09253,157.88305,75.10931,0,148.07409-12.29351,217.36486-36.68566l337.94214,56.33575a47.75291,47.75291,0,0,0,9.09351.76324,54.1076,54.1076,0,0,0,39.26709-16.8081A51.30461,51.30461,0,0,0,1493.42109,1140.27443ZM522.264,738.83821a87.62482,87.62482,0,1,1,87.62482-87.62482A87.62481,87.62481,0,0,1,522.264,738.83821Zm358.55261,0a87.62482,87.62482,0,1,1,87.62482-87.62482A87.6248,87.6248,0,0,1,880.81659,738.83821Zm368.60553,0a87.62482,87.62482,0,1,1,87.62482-87.62482A87.6248,87.6248,0,0,1,1249.42212,738.83821Z"/></svg>