<svg id="图层_11" data-name="图层 11" xmlns="http://www.w3.org/2000/svg" xmlns:xlink="http://www.w3.org/1999/xlink" viewBox="0 0 10.79028 19.76897"><defs><style>.cls-1{fill:url(#未命名的渐变_2);}</style><linearGradient id="未命名的渐变_2" y1="9.8845" x2="10.79028" y2="9.8845" gradientUnits="userSpaceOnUse"><stop offset="0" stop-color="#50bd9b"/><stop offset="1" stop-color="#b5f6c9"/></linearGradient></defs><title>arrow2.0</title><path id="联合_2" data-name="联合 2" class="cls-1" d="M8.03564,19.29243.659,11.76509A2.55507,2.55507,0,0,1,.0059,9.87894,2.55517,2.55517,0,0,1,.6576,8L8.03279.46689a1.45267,1.45267,0,0,1,2.39139.389,2.70575,2.70575,0,0,1-.2871,3.122L4.35378,9.88468l5.77616,5.89958a2.70722,2.70722,0,0,1,.2871,3.12348,1.59322,1.59322,0,0,1-1.34211.86125A1.4612,1.4612,0,0,1,8.03564,19.29243Z" transform="translate(0 -0.00002)"/></svg>