<svg id="图层_11" data-name="图层 11" xmlns="http://www.w3.org/2000/svg" viewBox="0 0 10.79029 19.769"><defs><style>.cls-1{fill:#80baa1;}</style></defs><title>arrow</title><path id="联合_2" data-name="联合 2" class="cls-1" d="M13.6431,19.29242,6.26646,11.76508a2.55507,2.55507,0,0,1-.6531-1.88615A2.55518,2.55518,0,0,1,6.26506,8L13.64025.46688a1.45267,1.45267,0,0,1,2.39139.389,2.70577,2.70577,0,0,1-.2871,3.122L9.96124,9.88467l5.77616,5.89958a2.70722,2.70722,0,0,1,.2871,3.12348,1.59323,1.59323,0,0,1-1.34211.86125A1.4612,1.4612,0,0,1,13.6431,19.29242Z" transform="translate(-5.60746 0.00001)"/></svg>