<svg id="图层_11" data-name="图层 11" xmlns="http://www.w3.org/2000/svg" viewBox="0 0 22.00521 19.76897"><defs><style>.cls-1{fill:#80baa1;}</style></defs><title>箭头</title><path id="联合_2" data-name="联合 2" class="cls-1" d="M394.758,325.78468l-8.005-7.534a2.84722,2.84722,0,0,1-.003-3.759l8.005-7.535a1.646,1.646,0,0,1,2.593.384,2.54,2.54,0,0,1-.319,3.122l-4.048,3.81h12.833a2.225,2.225,0,0,1,2.229,2.221v.003a2.225,2.225,0,0,1-2.225,2.225H393.253l3.779,3.556a2.543,2.543,0,0,1,.319,3.124,1.751,1.751,0,0,1-1.457.855A1.64992,1.64992,0,0,1,394.758,325.78468Z" transform="translate(-386.0378 -306.48771)"/></svg>