<svg id="图层_2" data-name="图层 2" xmlns="http://www.w3.org/2000/svg" xmlns:xlink="http://www.w3.org/1999/xlink" viewBox="0 0 31 31"><defs><style>.cls-1{fill:url(#未命名的渐变_2);}</style><linearGradient id="未命名的渐变_2" x1="2.03766" y1="30.60905" x2="28.96234" y2="0.39095" gradientUnits="userSpaceOnUse"><stop offset="0" stop-color="#50bd9b"/><stop offset="1" stop-color="#b5f6c9"/></linearGradient></defs><title>感恩icon</title><path id="联合_5" data-name="联合 5" class="cls-1" d="M20.174,31a4,4,0,0,1-4-4V18.174a2,2,0,0,1,2-2H27a4,4,0,0,1,4,4V27a4,4,0,0,1-4,4ZM4,31a4,4,0,0,1-4-4V20.174a4,4,0,0,1,4-4h8.826a2,2,0,0,1,2,2V27a4,4,0,0,1-4,4ZM18.174,14.826a2,2,0,0,1-2-2V4a4,4,0,0,1,4-4H27a4,4,0,0,1,4,4v6.827a4,4,0,0,1-4,4ZM4,14.826a4,4,0,0,1-4-4V4A4,4,0,0,1,4,0h6.827a4,4,0,0,1,4,4v8.826a2,2,0,0,1-2,2Z"/></svg>