<svg id="图层_1" data-name="图层 1" xmlns="http://www.w3.org/2000/svg" viewBox="0 0 1673.46538 459.75513"><defs><style>.cls-1{fill:#f7f7f7;}</style></defs><title>蒙版文字</title><path class="cls-1" d="M218.06858,920.86792c23.67918-.8686,47.91035-2.02707,72.15473-2.47886a80.90984,80.90984,0,0,1,21.24041,2.85911c11.22341,2.86937,18.80438,10.39647,19.325,22.14659.67751,15.28922,1.04221,30.7995-.77655,45.93611-1.96886,16.38528-12.44843,24.50768-32.49626,25.47455-22.49214,1.08477-45.11313,1.03748-67.61035.00552-19.08765-.87553-30.02729-12.13979-31.72241-31.251-.98718-11.12939-.17967-22.41794-.17967-35.488-4.32007,4.69884-7.58754,8.15855-10.7485,11.713-4.68432,5.26746-9.54735,5.31012-14.698.7294q-7.76739-6.90786-15.57526-13.77012c-4.99654-4.38749-4.54884-8.48625.12518-12.96251,6.97118-6.67616,13.6575-13.64978,21.73543-21.77468-7.785,0-14.06211-.10888-20.33362.03171-5.86337.13144-8.627-2.412-8.03508-8.38007a24.21985,24.21985,0,0,0,.04628-4.61617c-.68946-7.37561,2.18837-10.8922,10.01954-10.81377,10.514.10534,21.03647-.81148,31.55384-.78117,5.25521.01514,8.88654-1.38785,10.76328-7.759-5.79109,0-11.23881-.12734-16.67752.03911-4.58769.14042-6.69661-1.86219-6.4383-6.42025.029-.51109-.00693-1.02661-.026-1.53956-.51407-13.82916-.51435-13.828,13.50477-13.76285,6.93087.03219,13.894.45419,20.77669-.107,2.736-.2231,5.29389-2.62963,7.93292-4.04213q-.50643-1.10286-1.01282-2.20573c-12.19675,0-24.39392.05982-36.59-.02818-5.18831-.03744-11.18164,1.50714-11.36061-7.24235-.29956-14.64467.48047-16.26137,11.23764-16.83628q66.50427-3.55422,133.01263-7.03078c8.19194-.42783,10.20729,1.36158,10.36492,9.37562.4134,21.012,3.10085,19.0542-18.221,19.67856-14.36766.42073-28.74349.785-43.11466.75051-5.21652-.01253-8.32729,1.42319-8.76246,7.78158q28.76222,0,57.39915.00661c9.62814.01129,9.47841.23669,9.76757,10.0101.17962,6.072-2.13875,8.17365-8.00095,8.2854-21.5565.41085-43.10488,1.28554-64.66195,1.60768-5.38185.08042-8.84279,1.41747-9.7781,7.66723,3.65124,0,7.14561.08346,10.635-.01312q44.26123-1.225,88.521-2.50013c10.09894-.2818,10.89322.46567,11.655,10.52192,1.38834,18.32846,1.38834,18.32851-16.97029,18.32852-34.14132,0-68.28748.31341-102.42052-.218C224.9774,911.66042,220.40506,915.07286,218.06858,920.86792Zm16.64034,65.50327q-.44693,1.36593-.89394,2.73189c2.56442,1.11437,5.12509,3.17934,7.69383,3.18942,17.1401.06739,34.297-.00052,51.40721-.853,2.63-.131,6.93745-4.31572,7.24028-6.99108,1.40691-12.43065,1.84744-24.98428,2.26286-37.50619.14686-4.4259-2.41681-7.25213-7.22933-7.10963-18.44687.54624-36.90135.96276-55.32861,1.90481-2.72684.1394-5.32267,2.843-7.97909,4.36022q.48818,1.0038.97639,2.0076c2.23555,0,4.476.09772,6.70574-.01588,14.09373-.71805,28.19944-1.28806,42.27055-2.32313,6.08968-.448,8.11993,1.88763,8.45643,7.76264.3819,6.66813-1.04977,9.85585-8.71446,9.61352-16.57316-.524-33.17433-.16129-50.43129-.16129.16172,3.45358.27534,5.88081.42163,9.00559,3.91473-.21058,7.17692-.37662,10.438-.56311,14.08846-.80558,28.17132-1.75531,42.26984-2.29491,2.44107-.09344,6.17806.7966,7.21189,2.50556,4.45257,7.36023-.02435,14.71381-8.51048,14.72873Q258.8427,986.40548,234.70892,986.37119Z" transform="translate(86.73269 -563.69453)"/><path class="cls-1" d="M1308.762,939.56236c7.07316,0,13.42182.09927,19.76595-.02941,5.72822-.1162,8.44322,2.86423,9.11508,8.22668.03178.25425.04438.5115.05453.7678.96614,24.4423,2.53222,23.72864-20.81258,23.63907-55.17239-.21169-110.34658-.03439-165.51775-.38024-4.32677-.0271-11.40153-1.93137-12.35442-4.657-1.76681-5.0534-.65719-11.53965.75094-17.0466.50027-1.95632,5.26827-3.68566,8.23561-3.96817,6.30419-.60017,12.70511-.1832,19.45711-.1832.22254-2.84513.481-4.54322.46944-6.23948-.204-29.75713-.68061-59.51488-.57568-89.27064.057-16.16948,9.06515-25.54193,25.22377-25.91918,29.22505-.68234,58.47238-1.09268,87.7-.74237,20.56813.24653,26.48739,6.6722,26.97526,26.991.65879,27.4399,1.02471,54.88686,1.50835,82.33092C1308.79241,935.06008,1308.762,937.03975,1308.762,939.56236Zm-35.97028,3.24743c0-29.43608.16115-56.60805-.29089-83.76983-.03827-2.29506-4.13318-6.42292-6.42631-6.48188q-29.61129-.76125-59.24889-.00928c-2.62784.0636-5.17247,3.568-7.75565,5.479q.70006,1.24689,1.40032,2.4938c2.45927,0,4.92436.1099,7.377-.01826,13.58334-.70982,27.1602-1.54867,40.74608-2.20183,9.92825-.47732,10.16461.49768,11.17635,12.5503.71727,8.5451-3.67991,9.10469-10.15088,9.02028-16.63643-.217-33.27757-.07253-50.22962-.07253v7.23177c17.25639,0,33.91379-.13788,50.564.142,2.6347.04426,6.74579,1.27691,7.608,3.14478,5.20171,11.26823.09487,18.62209-12.2761,18.60578-15.58322-.02055-31.16654-.005-47.25719-.005.238,3.33716.41068,5.75876.60736,8.51741,2.41066,0,4.17361.052,5.93281-.0081,16.67357-.57012,33.35381-1.01013,50.01572-1.82329,5.89717-.28781,8.81826,1.60084,8.27539,7.76852a18.172,18.172,0,0,0,.14479,4.6108c1.25544,7.3327-1.49585,10.079-9.13181,9.80063-15.89791-.57952-31.82609-.514-47.73754-.33866-2.4116.02658-4.80091,2.06551-7.20056,3.17363,2.34352,1.10328,4.68488,3.14069,7.031,3.146,9.48814.02149,18.97516-.77409,28.46763-.90956C1247.46006,942.67038,1260.492,942.80979,1272.79167,942.80979Z" transform="translate(86.73269 -563.69453)"/><path class="cls-1" d="M974.48832,976.83246V873.40823c-14.48771,0-29.05167-.41575-43.58141.11055-16.30746.5907-15.80126-4.55516-14.2978-19.41155.56449-5.5787,5.56914-6.54168,10.582-6.73512,22.822-.88062,45.63668-1.94994,68.45694-2.87771,20.00044-.81314,40.01216-1.38047,60.00377-2.36551,7.14744-.35217,10.13923,2.381,10.70973,9.5631,1.83216,23.07063,2.01277,23.00294-21.44467,22.75521-11.99206-.12664-23.98648-.02218-36.08234-.02218v103.954c3.42249.2677,6.13777.61964,8.85859.67029,17.96248.33455,35.927.55516,53.88894.915,9.53224.191,11.04294,2.45906,10.96678,15.753-.04654,8.1235-2.02752,10.09147-10.72957,10.27034q-79.67217,1.63734-159.34558,3.20359c-11.22721.21883-12.36692-1.03927-12.05073-12.36359.56731-20.317.56637-20.20968,20.70173-20.02789C938.50724,976.9568,955.89234,976.83246,974.48832,976.83246Z" transform="translate(86.73269 -563.69453)"/><path class="cls-1" d="M4.86176,982.22527c-16.46952-1.24494-32.17479-1.61-47.61589-3.82043-16.90906-2.42055-25.53237-12.63-27.02253-29.6398a127.96,127.96,0,0,1-.25015-18.43958c.84259-14.677,9.02972-23.77921,23.67222-25.75368,32.66153-4.40424,65.42718-5.71855,98.26186-1.90694C69.78678,904.74038,78.427,913.78622,79.613,931.76093a150.96652,150.96652,0,0,1,.15565,16.15737c-.74564,18.00412-8.8014,27.73558-26.64187,30.11352C36.88778,980.19628,20.45749,980.92576,4.86176,982.22527Zm-38.611-32.89967-.53363,2.09129c2.63009.81877,5.25451,2.32468,7.89117,2.34645,19.19192.15844,38.39429.34,57.57721-.13673,13.61021-.33822,14.84275-2.3574,14.57689-16.31137-.119-6.24509-2.6033-9.89652-9.04585-9.78009-22.03309.39822-44.066.8654-66.091,1.56058-2.176.06867-4.297,1.87973-7.67676,3.45795,21.37791,0,40.83325.07864,60.28749-.03344,9.61375-.05537,9.97053.50283,10.62263,9.4632.61528,8.45474-4.79351,7.36289-9.96335,7.35455Q-4.92676,949.29148-33.74926,949.3256Z" transform="translate(86.73269 -563.69453)"/><path class="cls-1" d="M784.76982,863.14562c12.351-1.54268,23.52588-2.72672,34.63266-4.37045,22.13994-3.27654,35.104,7.63509,35.12194,30.12358q.03553,44.27817-.25959,88.55642c-.12655,19.63889-11.56136,31.07237-31.12113,31.32255-8.98251.11492-17.97188-.14455-26.95054.07454-7.0238.17139-11.31644-2.06575-11.48088-9.90792-.10164-4.851-1.1586-9.67409-1.55179-14.52875-.55311-6.82971,2.09325-9.59451,8.9057-9.02388,5.35881.44889,10.68444,1.34711,16.00725,2.16012,6.51337.99484,9.81411-1.61366,9.72319-8.30611-.32766-24.126-.53431-48.25431-1.01964-72.37706-.17045-8.47313-2.287-10.07109-11.044-9.55889-3.32546.19448-6.658,1.077-9.94912.907-13.15246-.67955-23.06134,2.93334-27.28017,17.05528-1.88574,6.3122-6.9295,7.44467-12.91167,3.75921-4.78821-2.94989-9.97394-5.254-14.97934-7.85227-4.33128-2.24828-5.60195-5.09165-3.42164-10.02162,7.75715-17.539,15.10072-35.26092,22.59819-52.9147.20054-.47219.33462-.97508.56073-1.4335,2.48-5.02576,12.28832-5.79647,24.01225-2.06178,5.89218,1.877,5.13213,6.02168,4.092,10.54859C787.19552,850.77391,786.1692,856.30527,784.76982,863.14562Z" transform="translate(86.73269 -563.69453)"/><path class="cls-1" d="M738.57119,943.139c-.52942,11.12567-.78939,18.55292-1.25347,25.96739-1.33065,21.257-10.04906,32.13029-31.07723,35.71781-11.73736,2.00251-23.95329,2.01462-35.918,1.67385-16.32053-.46488-25.81225-10.5465-29.69637-25.49949a144.95808,144.95808,0,0,1-2.618-62.44395c2.32679-13.089,9.77829-22.13528,22.33983-24.40813a313.00553,313.00553,0,0,1,49.49429-4.91253c13.77335-.26628,23.46768,9.46564,25.80265,23.94893C737.43252,924.27218,737.87084,935.579,738.57119,943.139Zm-66.24355,21.2196c.93023,12.4824,2.7087,14.19677,13.95369,13.93566,3.57217-.08295,7.14631-.39154,10.70287-.75812,4.93423-.50858,8.014-3.02686,8.448-8.238.86827-10.42627,2.42692-20.84531,2.50449-31.27622.14027-18.87934-3.49122-21.74569-22.30288-19.68435-.50893.05576-1.02086.09251-1.52622.17139-11.61411,1.81246-13.45726,4.12713-12.83513,16.57076a26.94288,26.94288,0,0,0,5.16777-.29873c26.11207-6.54637,21.27722,2.34,22.745,19.56337.02163.255.03376.51127.038.76713.09721,5.95649-2.84362,9.11124-8.7862,9.22308C684.58315,964.44472,678.72566,964.35859,672.32764,964.35859Z" transform="translate(86.73269 -563.69453)"/><path class="cls-1" d="M1586.73269,952.80347c-.98476,8.89579-1.78223,19.379-3.38056,29.73866-2.17147,14.07244-10.87389,22.81421-24.72726,24.74882a282.39211,282.39211,0,0,1-42.05464,2.91577c-14.16-.15842-24.78423-9.92246-28.548-24.92651-4.72316-18.82915-6.02645-37.94371-2.3597-57.20077,2.67184-14.03225,10.78589-23.48749,24.738-26.18365a280.16174,280.16174,0,0,1,41.15092-5.04607c19.16753-.81053,30.36692,9.37333,32.77926,28.2692C1585.43278,933.75106,1585.85962,942.4694,1586.73269,952.80347Zm-69.29184-21.19687q.61545.99087,1.23109,1.98174c5.06425-.48283,10.12155-1.06207,15.19427-1.42676,8.40814-.60445,6.71768,5.868,7.2047,10.63825.5,4.89529.52049,9.56186-6.572,9.3437-5.59941-.17226-11.20842-.03464-16.81328-.03464l-1.27208,2.45153c1.695,1.20387,3.37661,3.39946,5.08776,3.42289a102.2124,102.2124,0,0,0,14.54365-1.2612c6.31246-.82477,7.46494,2.80982,7.1669,7.87668-.28694,4.87229,2.84484,11.61651-6.37074,11.5906-5.57253-.01567-11.145-.00289-16.75274-.00289-.57163,6.23651,2.42081,9.182,6.876,9.32975a94.81376,94.81376,0,0,0,20.63611-1.38879c2.58947-.48972,6.39989-4.09456,6.53358-6.45651.90616-16.01969,1.18672-32.08855,1.03628-48.13556-.0173-1.86035-3.8986-5.21956-6.02945-5.25266a146.50511,146.50511,0,0,0-24.41512,1.61946C1522.06829,926.31,1519.8564,929.6223,1517.44085,931.6066Z" transform="translate(86.73269 -563.69453)"/><path class="cls-1" d="M22.70072,864.63737c0,6.23215-.22774,11.85516.05582,17.45226.38158,7.53154-3.435,10.787-10.46249,11.25138-5.11469.338-10.23592.60908-15.34,1.068-6.71169.60347-9.38808-2.81985-9.395-9.07133-.00784-7.10865-.00181-14.21735-.00181-22.70552-13.16846,0-26.42008.03238-39.67144-.01325-6.92192-.02384-13.8469-.08-20.76412-.3118-7.797-.26128-9.61526-4.9213-9.17374-11.9598.69815-11.12982,2.05671-13.51282,10.05089-13.7977,19.94765-.71083,39.89926-1.311,59.73835-1.952,3.18744-14.97053,7.05178-17.30583,25.547-15.85143,9.24156.72673,7.72239,7.84227,7.99627,14.81624,3.67141,0,7.15012.078,10.62442-.01333,16.14581-.42469,32.28873-.97161,48.436-1.32068,8.60739-.18607,11.158,2.292,11.53515,10.55131,1.01621,22.25206,1.01734,22.15222-21.605,21.89205C54.68058,864.4925,39.08631,864.63737,22.70072,864.63737Z" transform="translate(86.73269 -563.69453)"/><path class="cls-1" d="M1403.828,941.198c-3.98115,0-6.47793.033-8.97358-.00586-9.53882-.14862-11.94186-2.11755-12.03371-9.81-.15767-13.20906,1.56476-15.56335,11.73868-16.15687q8.82954-.51512,17.65287-1.13118c1.25384-.087,2.494-.36992,3.67973-.55321,3.4742-20.39123,3.47589-20.51784,20.47665-20.27915,13.61625.19117,6.7235,11.73369,10.11873,18.69423,5.58437-.42931,11.63583-.85168,17.6792-1.37107,6.1451-.52818,9.21389,2.40576,9.35322,8.39031.57691,24.7779,3.29651,24.1185-21.40894,23.51929-1.76662-.04285-3.53889.14087-6.448.2697,0,2.85137-.01636,5.551.00263,8.25046.12354,17.4398.29071,34.87939.36875,52.31938.04324,9.64668-1.29465,11.1533-10.53411,12.48715-20.02743,2.89123-20.38677,2.57467-20.33036-17.48834.02426-8.60317.00414-17.2064.00414-27.53127-2.6363,3.62167-4.18292,5.83333-5.82412,7.97244a46.26729,46.26729,0,0,1-3.94937,4.7122c-5.18987,5.16349-6.973,4.39338-19.418-6.86872-4.33241-3.92061-4.62331-7.40271-.705-11.76574,5.13129-5.71374,9.97187-11.69153,14.85072-17.62711A62.53,62.53,0,0,0,1403.828,941.198Z" transform="translate(86.73269 -563.69453)"/><path class="cls-1" d="M439.21181,906.95233c3.79406,0,8.14146.07929,12.48482-.01979,5.61159-.128,8.89639,2.53671,9.084,8.09738.71727,21.26322,1.37992,42.53068,1.74058,63.802.10013,5.90269-3.49916,9.49016-9.46624,10.17126-5.854.6682-11.72467,1.27269-17.605,1.60862-9.34133.53366-11.99286-2.09392-11.72044-11.41746.539-18.44924,1.15761-36.89616,1.73216-55.3444.04621-1.4837.00611-2.97009.00611-4.49647-.93164,0-1.5523-.19813-1.859.02857-12.28649,9.08015-13.065,8.99058-22.75939-2.77629-14.12715-17.14723-14.05334-17.05275,3.23558-30.55614,14.00967-10.94212,26.5808-23.28277,36.21-38.41449,4.569-7.17992,7.91256-7.83782,15.29129-3.688,16.513,9.28681,17.27924,9.8596,8.09727,26.41937C456.576,883.185,447.40475,894.85927,439.21181,906.95233Z" transform="translate(86.73269 -563.69453)"/><path class="cls-1" d="M-73.98669,1016.80913c-10.77345-.025-12.68087-1.57-12.74174-9.63512-.1026-13.59314,1.58172-15.93662,12.42521-16.22573q67.63294-1.80333,135.26984-3.45836c8.1985-.20724,16.39708-.46184,24.59713-.54207,8.48924-.083,10.55092,1.89177,10.918,10.168.17032,3.83984.25087,7.68516.29292,11.52885.09357,8.55193-2.221,10.92735-10.86294,10.93766C58.749,1019.61488-47.84961,1016.86987-73.98669,1016.80913Z" transform="translate(86.73269 -563.69453)"/><path class="cls-1" d="M569.85551,879.384c-18.61464-.88488-35.20115-1.81566-51.80058-2.238-1.62531-.04136-3.75744,2.78754-4.9229,4.7243-4.612,7.66455-8.77158,15.60221-13.41618,23.24586-3.27958,5.39713-7.59675,6.14214-12.87086,2.17041-4.7019-3.54085-9.81039-6.53687-14.66151-9.8863-3.621-2.50009-4.29029-5.58966-1.28914-9.09316,14.4635-16.88444,23.85607-36.29642,28.89631-57.885a4.93746,4.93746,0,0,1,.7459-2.16055c7.21791-7.88792,14.18817-.08873,21.24591.52292,4.83617.41912,6.17787,3.75606,5.08748,8.38874-1.22183,5.191-2.13151,10.45545-3.3815,16.71116,16.36533.8585,32.40789,1.7141,48.45237,2.53247,4.35408.22209,8.75061.02841,13.064.551,11.99065,1.45269,18.6295,10.8382,13.99848,21.9659-4.0865,9.81913-10.44234,18.71231-16.05177,27.8575-.76978,1.25507-3.58773,2.67474-4.48646,2.19584-5.25784-2.80157-10.96128-5.44924-14.93722-9.64376-1.62724-1.71677.33024-7.27386,1.3371-10.8948C565.57415,885.89808,567.43052,883.6666,569.85551,879.384Z" transform="translate(86.73269 -563.69453)"/><path class="cls-1" d="M557.26962,947.36194c0,10.518.18376,21.04-.042,31.55314-.36071,16.79972-11.9491,28.2151-28.82688,28.568-7.18011.15015-14.36629-.01782-21.549.04078-5.16331.04209-8.2257-2.15455-8.79311-7.51381-.53962-5.09594-1.28656-10.16957-1.89515-15.25865-.92839-7.76392,2.50449-11.03986,10.21313-9.79458,15.60927,2.52153,15.51633,2.52564,14.80127-13.5924q-1.1424-25.75347-1.94691-51.52162c-.26884-8.17578,2.29473-10.72277,10.37555-10.47457,5.63843.17316,11.29364.37673,16.89715.97838,8.69951.93407,11.16568,3.69985,11.248,12.38349.10949,11.543.02708,23.08782.02708,34.63188Z" transform="translate(86.73269 -563.69453)"/><path class="cls-1" d="M1535.88856,861.16609c-6.779-1.98734-11.35715,1.53267-15.45752,9.35638-8.567,16.34643-11.14316,16.5383-26.82765,6.691-1.08423-.6807-2.17373-1.35281-3.25363-2.04036-9.23946-5.88292-8.8978-7.09186-2.91629-16.00484a378.52563,378.52563,0,0,0,20.15266-34.30051c3.24423-6.14554,6.82316-8.55423,13.37405-5.63237,2.09268.93343,4.36983,1.44619,6.53885,2.21773,9.46,3.365,9.59411,3.58138,9.05275,14.54486,12.72118-1.51933,25.31732-3.03346,37.91628-4.52516,8.91754-1.05586,11.38874,1.12049,11.75749,10.29371.78036,19.41289.78055,19.41288-18.57088,19.41294h-15.2629c5.09378,4.83635,8.72085,7.92009,11.9113,11.40378,3.66074,3.99723,3.31813,7.818-1.55019,10.78313-.65475.3988-1.34353.74136-2.01051,1.12046-19.61618,11.1455-19.89918,11.23886-26.91095-10.0779C1532.63869,870.78247,1535.0486,865.97094,1535.88856,861.16609Z" transform="translate(86.73269 -563.69453)"/><path class="cls-1" d="M1455.28734,861.17948c4.52778,4.29185,7.49653,6.95568,10.29379,9.78872,5.82713,5.90185,5.46215,8.993-1.393,13.113-19.79444,11.89671-20.37172,11.85841-27.234-10.0012-1.10285-3.513,1.18633-8.0909,1.93623-12.33852-10.80657-2.29282-11.73022-1.89-18.2796,8.699-12.74206,20.60079-15.00849,15.908-28.68153,6.07416-.62353-.44849-1.25365-.888-1.88048-1.33227-11.11035-7.87543-10.59945-8.09057-2.2008-18.701a251.0579,251.0579,0,0,0,20.78193-31.23152c3.93621-6.883,8.118-8.49459,14.8652-4.95838a45.4546,45.4546,0,0,0,6.38335,2.62394c5.71242,1.95751,9.46981,5.11771,6.95159,12.66634,12.032-1.45317,23.1735-2.80808,34.31761-4.14167,8.43748-1.00972,11.38442,1.41827,11.78475,9.66329.9699,19.98806.9699,19.989-18.70815,20.07479C1462.03886,861.18773,1459.85348,861.17948,1455.28734,861.17948Z" transform="translate(86.73269 -563.69453)"/><path class="cls-1" d="M1277.48258,977.19051c13.16448,2.84,24.23385,4.99047,35.16725,7.69148,5.12923,1.26712,6.85185,5.45338,5.11155,10.276-2.34352,6.49417-5.16,12.82879-8.00452,19.12752-2.28909,5.06888-6.64133,5.64647-10.989,3.44895-9.82634-4.96671-19.63744-10.045-28.9555-15.87584-2.18012-1.36426-3.36993-5.95358-3.21687-8.9677a19.52585,19.52585,0,0,1,3.86429-9.893C1272.4375,980.294,1275.74736,978.56455,1277.48258,977.19051Z" transform="translate(86.73269 -563.69453)"/><path class="cls-1" d="M1208.18059,995.31917c-1.00648,1.41959-2.36581,4.21585-4.49431,6.17728-6.94934,6.40372-14.08616,12.61393-21.33016,18.68466-5.89228,4.93806-9.4227,4.32371-13.76517-2.13473-3.27592-4.87236-6.46655-9.80995-9.49322-14.84-3.73323-6.20438-2.75646-9.66751,3.826-12.80489,7.827-3.73054,15.78245-7.19642,23.73-10.66785C1196.06479,975.623,1207.95673,983.44973,1208.18059,995.31917Z" transform="translate(86.73269 -563.69453)"/><path class="cls-1" d="M656.84126,861.74956c3.30656-3.46088,5.42087-7.17787,8.58828-8.69178,7.79251-3.72455,16.06451-6.4483,24.1576-9.538a6.53209,6.53209,0,0,1,2.9381-.67057c9.221,1.22243,10.4149,9.79631,13.40151,16.04087,1.18775,2.48334-.79155,8.65321-3.24216,10.30321-7.77427,5.23434-16.33058,9.38678-24.86312,13.35913-2.11346.98391-6.59667.73522-7.73289-.71533C665.46471,875.93386,661.71832,869.34343,656.84126,861.74956Z" transform="translate(86.73269 -563.69453)"/><path class="cls-1" d="M-35.29839,867.708c10.363-1.39088,9.6502,6.3341,11.29941,11.86924,1.64347,5.51584-.57613,8.60267-6.14271,10.11336-11.09383,3.0107-22.08418,6.40259-33.11838,9.63327-5.41133,1.58435-8.99363-.16712-10.46324-5.756-.06495-.24706-.18216-.48274-.22715-.73235-3.04491-16.899-9.53875-22.10566,15.03893-23.17179C-50.73888,869.30922-42.59338,868.32882-35.29839,867.708Z" transform="translate(86.73269 -563.69453)"/><path class="cls-1" d="M46.65514,867.77712c11.00463.89455,22.22719,1.74078,33.43575,2.74346,6.40222.57274,8.68334,3.88,7.53391,10.46246-3.58968,20.55758-4.05411,20.98993-23.71359,15.25971-7.35581-2.144-14.63006-4.62946-22.07825-6.37627-6.53744-1.53323-8.157-5.20333-6.59529-11.23514C36.78481,872.65552,37.23537,865.7164,46.65514,867.77712Z" transform="translate(86.73269 -563.69453)"/><path class="cls-1" d="M803.93509,934.957c-1.38058,2.27454-2.24669,4.47128-3.75918,6.04806-4.43113,4.6196-9.04023,9.07787-13.73085,13.43664-4.319,4.01338-8.5725,4.29693-12.33233-.88713-4.81087-6.63329-9.58442-13.29408-14.452-19.88556-2.88282-3.90382-2.7339-7.61073.55264-11.08148,2.63828-2.78617,5.076-6.14525,8.33566-7.84229,2.74818-1.43076,7.3146-2.22277,9.74378-.88254a195.51542,195.51542,0,0,1,21.654,14.52C801.77189,929.73591,802.52405,932.5362,803.93509,934.957Z" transform="translate(86.73269 -563.69453)"/><path class="cls-1" d="M503.03765,926.589c3.22547,4.33151,6.98676,8.29082,9.3112,12.96469,1.16208,2.33667.88265,7.1658-.78116,8.82228a192.85022,192.85022,0,0,1-22.10248,18.99829c-1.79736,1.31467-7.445.36326-8.94344-1.4789a86.43943,86.43943,0,0,1-10.78058-17.62981c-1.00826-2.1342-.23547-7.3453,1.22018-8.04731C480.83476,935.457,491.10872,931.52651,503.03765,926.589Z" transform="translate(86.73269 -563.69453)"/><path class="cls-1" d="M584.8285,970.10364c-2.37055-1.9242-4.95053-3.23208-6.38108-5.32546-4.46959-6.54062-8.47274-13.39837-12.71682-20.09512-5.11982-8.07871,1.92448-11.32925,6.15229-15.72467,3.92089-4.07628,7.89325-5.11289,12.73741-1.16093,5.94394,4.84912,12.25889,9.24039,18.31632,13.95436,5.08729,3.959,5.53679,8.27219.58517,12.79787-4.15664,3.79891-8.19025,7.73567-12.42281,11.44653C589.44353,967.44764,587.39359,968.44911,584.8285,970.10364Z" transform="translate(86.73269 -563.69453)"/><path class="cls-1" d="M1480.15769,967.86869c-4.60318,3.87977-9.38068,8.93693-15.18637,12.1157-1.56241.85536-6.37451-3.84556-9.44743-6.305-1.33188-1.06573-2.04-2.91231-3.02723-4.40682-6.01009-9.09849-3.91591-15.69,6.2519-19.39209,1.11056-.40434,2.896-.76075,3.59981-.19048,5.7286,4.64113,11.29473,9.4846,16.837,14.35009C1479.6498,964.44794,1479.57816,965.46668,1480.15769,967.86869Z" transform="translate(86.73269 -563.69453)"/><path class="cls-1" d="M603.34853,728.83515V682.30882c-19.2166,0-38.09988-.03563-56.98282.02671-4.35858.01438-8.71465.47875-13.07434.53082-5.5732.06657-8.663-2.667-8.67776-8.41026-.06383-24.81943-2.41066-24.24886,21.72473-24.04614,18.69018.157,37.38271.03136,56.67266.03136V623.03172H576.57938c-6.67257,0-13.35907-.27777-20.015.05528-16.04083.80268-15.83064-3.06765-14.24081-19.1642.56623-5.733,5.57492-6.6579,10.49432-6.86317q21.15019-.88249,42.29635-1.86278c3.02052-.13758,6.03577-.38936,9.93989-.647,0-6.12586-.09658-11.70582.02289-17.28115.17416-8.12862,2.914-10.79139,11.16629-11.35908,20.94491-1.44084,21.71114-2.1339,21.16678,20.01466-.04984,2.02681-.00663,4.05591-.00663,5.6374,11.33762,0,22.22076.10971,33.10034-.04161,6.40942-.08915,12.81212-.6148,19.21966-.90259,5.67525-.25489,8.9499,2.77,9.08662,8.16287.63591,25.08485,3.92372,24.55455-20.69651,24.27805-13.313-.14952-26.62905-.02664-40.55359-.02664v27.74907c8.03673,0,15.90636-.00014,23.776,0,14.37172.00033,28.74387-.06214,43.11508.02367,9.395.0561,11.54528,3.00708,11.69847,15.50387.09751,7.95307-2.32669,10.24921-11.43179,10.58035-18.97644.69015-37.95566,1.30532-56.932,1.99891-3.009.11-6.00883.46818-9.2138.72791v47.09234c8.168-.68224,15.8435-.64762,23.12951-2.31593,2.39571-.54858,5.0833-5.39064,5.35934-8.47361.5666-6.32881-.40755-12.79545-.744-19.20553-.31413-5.98614,2.95836-8.53886,8.48993-8.24946,6.13959.32121,12.27833.92522,18.3741,1.73351,4.96082.65784,8.0231,3.69632,7.85355,8.83768-.38032,11.53312-.31642,23.15705-1.83484,34.55709-1.87467,14.07538-12.93136,23.3612-27.17637,23.45619q-52.73635.35162-105.47615-.02623c-16.11241-.13761-27.88463-12.68036-27.69633-28.85636a206.19626,206.19626,0,0,1,1.67466-26.10947c.40865-2.92236,3.33582-7.199,5.83456-7.788a58.78226,58.78226,0,0,1,19.78777-1.34426c2.35051.2665,5.42152,5.11251,5.95366,8.24473,1.15221,6.782.86155,13.80744,1.19123,20.73189.30693,6.44641,3.80754,9.13819,10.10219,8.58462C589.73915,729.92684,596.089,729.43243,603.34853,728.83515Z" transform="translate(86.73269 -563.69453)"/><path class="cls-1" d="M1141.954,696.3441c-15.005,5.78864-29.90524,11.87174-45.04974,17.269-11.31138,4.03126-11.96209,3.259-12.93422-10.21155,8.86828-2.55969,17.99872-4.87632,26.90574-7.86064a230.673,230.673,0,0,0,23.51016-9.36574c1.88341-.8712,2.69559-4.061,4.72315-7.36162-15.99842,6.289-29.73278,11.59809-43.38891,17.10168-5.25717,2.11871-7.95915.66928-9.60747-4.80474-4.73557-15.72743-4.88066-15.67263,11.21151-19.63218,2.458-.60476,4.88019-1.35507,8.858-2.4691-9.79837-5.33267-14.0916-13.06838-15.38824-22.548-1.27379-9.31274.17632-17.925,8.11544-25.51413-4.27451-2.56754-8.18709-4.73657-11.90868-7.19509-5.75105-3.79922-5.71023-7.08736-1.90561-12.66192,7.03094-10.302,13.885-20.78445,19.8969-31.69694,2.80682-5.09478,5.48285-6.987,10.80745-4.80421a53.49488,53.49488,0,0,0,7.186,2.70918c7.13278,1.778,11.86919,5.05059,9.08361,12.93038,12.25022,0,24.2048.02686,36.159-.01477,4.10526-.0143,8.214-.37368,12.314-.27609,15.363.36562,22.84092,12.87933,16.00434,26.63905-.78264,1.57519-1.53172,3.1671-2.31014,4.77983,19.18873,6.75647,27.31761,26.37427,18.60571,44.69494-3.68868,7.757-10.01671,12.35193-18.5349,13.27906-8.90269.969-17.86406,1.39856-27.62134,2.1251,2.62422,6.479,5.16719,12.75766,8.11666,20.03991,9.19919-5.89843,17.80614-11.78337,26.809-16.98172,2.96311-1.71094,8.655-3.45105,10.14263-2.04529,4.07168,3.84757,6.83149,9.22795,9.445,14.342.45352.88745-2.00811,3.91108-3.71013,5.12241-3.52083,2.50574-7.43651,4.45584-12.04936,7.13337,6.15191,6.45747,11.76914,12.614,17.68164,18.472,4.21762,4.17875,3.58825,7.3835-1.00814,10.60413-19.62185,13.74869-17.48464,13.45749-27.79051-5.16223-2.34-4.2278-4.82894-8.3731-7.19982-12.471-5.56786,1.07024-8.0562,3.69881-7.08586,9.184a47.15085,47.15085,0,0,1,.3751,8.4551c-.1292,20.80806-11.34363,31.89915-32.01838,31.72479-.51324-.00432-1.02647-.01935-1.53971-.02526-18.20607-.21016-17.54219-.41257-19.783-19.4102-.64367-5.45693,1.93014-7.43163,7.25859-6.90052,11.27123,1.12339,11.853.48312,11.21914-11.588-3.0848,1.58248-5.80493,3.22237-8.70626,4.42488-14.17792,5.87627-28.41658,11.6056-42.60682,17.45238-5.31059,2.18813-8.36247,1.1982-10.23563-4.88635-4.87379-15.83091-4.95184-15.22025,10.7357-20.336,14.56309-4.74905,28.74-10.70519,42.98466-16.38691,2.11708-.84443,3.67128-3.10165,5.486-4.70527Q1142.58013,696.92808,1141.954,696.3441Zm24.769-88.96246q-.64347-1.48611-1.28686-2.97224c-11.69269,0-23.41359.49191-35.06753-.17966-7.2965-.42048-10.69085,2.55618-11.93652,7.6443,13.59951,0,27.328.21883,41.03683-.20226C1161.92843,611.59622,1164.307,608.87911,1166.723,607.38164Zm-23.0634,26.4855c-4.60223,0-8.6346.041-12.66566-.01075-4.67435-.06-8.30755,1.17459-8.01172,6.78974.26677,5.06247.90348,10.05466,7.77813,10.10286,3.52873.02475,7.05775.00434,11.14607.00434C1142.507,644.96859,1143.05011,639.73693,1143.65955,633.86714Zm23.15546,17.9323c7.18666-2.4552,13.08919-3.84153,18.1993-6.66433,1.264-.6982.73713-8.54035-.3-8.86764-5.93507-1.87288-12.27241-2.46895-19.27411-3.63153C1165.92629,639.41082,1166.26736,644.165,1166.815,651.79944Z" transform="translate(86.73269 -563.69453)"/><path class="cls-1" d="M352.877,625.73505c0-14.25215-.188-28.07982.05785-41.89977.20669-11.61873,1.98237-13.26539,13.37107-14.25437,1.27739-.11093,2.55846-.18373,3.83889-.25474,13.81559-.76622,14.31907-.32637,15.46925,13.228.10506,1.23814.40573,2.45965.74411,4.442,16.4694-1.63272,32.74562-2.99,48.95362-4.9205,18.6233-2.21822,19.9154-1.32826,20.30087,17.1593.2849,13.6662-.556,14.543-14.01686,14.546-18.17156.00406-36.34311.001-54.99109.001v10.23178c12.22908.62946,24.23763.82585,36.1568,1.96146,17.20618,1.63932,25.57668,9.47646,27.42429,26.60064a107.1571,107.1571,0,0,1-.53005,28.2963c-2.78562,17.21073-11.35574,25.67234-28.86515,26.494-31.19769,1.46408-62.47112,1.82189-93.709,1.69494-14.72005-.05984-25.69971-9.081-28.579-23.48111a115.41634,115.41634,0,0,1-1.58793-32.6461c1.10444-12.17545,9.371-19.79592,21.39515-22.11874C329.09766,628.73122,340.06484,627.57633,352.877,625.73505Zm22.942,27.91647c-10.21133.771-24.29247,1.644-38.3177,3.06837-2.52572.25652-6.08725,2.23333-7.007,4.355-4.31383,9.95076,2.98713,21.73952,13.654,21.7202,20.24428-.03669,40.49736-.52053,60.72734-1.31442,13.89319-.54522,17.80551-5.59353,16.58847-19.50062-.47085-5.38078-2.71183-8.49275-8.68082-8.38526C401.75841,653.79327,390.72744,653.65152,375.819,653.65152Z" transform="translate(86.73269 -563.69453)"/><path class="cls-1" d="M836.23742,687.66527c-16.61011,0-33.22051.06605-49.8302-.02141-12.73967-.06707-18.27956-8.85476-12.173-20.262,1.36613-2.5519,6.1236-4.45388,9.41851-4.61346q30.73707-1.48892,61.52276-1.87734c5.55789-.07455,8.43515-2.046,9.80044-7.2634,5.95476-22.75669,12.40744-45.392,17.84511-68.26992,1.7827-7.50047,4.85809-10.33171,12.45465-10.01975,20.36147.83618,21.42476,1.37074,18.03548,21.36587-3.16373,18.66437-7.53251,37.1241-11.36037,55.67607-.39974,1.93744-.72839,3.88957-1.052,5.63,18.50232,0,36.65559.11554,54.80659-.04062,12.1072-.10417,13.31394.84321,13.71175,12.75692.63586,19.04274.636,19.03737-18.47613,18.78116-18.46678-.24755-36.941-.2592-55.396-.86352-5.305-.17371-7.664,1.70474-9.67091,6.37425-9.5882,22.31006-23.04408,42.26112-38.25863,61.072-5.78931,7.15777-7.78557,7.39326-15.18959,2.11626q-6.57742-4.68786-13.12713-9.41454c-8.86611-6.40786-8.89573-7.84635-2.45025-16.37875,10.47367-13.86486,20.65834-27.94835,30.965-41.93958Z" transform="translate(86.73269 -563.69453)"/><path class="cls-1" d="M1035.64081,661.50132c-2.62629,1.99872-3.98038,3.10311-5.40754,4.103-7.68692,5.38542-10.75836,4.94789-16.67659-2.43442-3.85-4.80235-7.77146-9.55732-11.39705-14.52622-2.708-3.71129-3.238-7.34919,1.20618-10.59643,18.96144-13.85442,36.28659-29.30964,49.13289-49.35433,1.3477-2.10273,6.35916-3.96548,8.45726-3.07536a59.0829,59.0829,0,0,1,16.79893,10.36189c1.7622,1.61641,1.45339,7.69922-.15515,10.41226-7.41526,12.50643-15.56145,24.58312-23.59875,36.71217-1.534,2.31482-3.75939,4.17091-6.76905,7.43534,5.57689,0,9.95.14791,14.30928-.0358,6.047-.25485,9.33808,2.66018,9.53545,8.51309.70959,21.037,1.34516,42.07878,1.70917,63.12394.10852,6.2713-3.49958,9.966-9.92532,10.51858-5.87648.50532-11.74713,1.1571-17.6349,1.43249-8.86385.41459-11.51289-2.24049-11.26624-11.179.5029-18.219,1.1192-36.43476,1.67428-54.65232C1035.68745,666.49748,1035.64081,664.73176,1035.64081,661.50132Z" transform="translate(86.73269 -563.69453)"/><path class="cls-1" d="M902.67455,704.56417c15.28066,1.65167,30.55229,3.39488,45.84644,4.91049,6.21675.616,8.82709,3.7658,7.5257,9.7671-1.57291,7.25345-3.51551,14.426-5.25021,21.64509-1.31173,5.4591-5.07719,7.11593-9.89156,5.51831-16.75511-5.56013-33.46171-11.28379-50.02142-17.39382-1.95963-.723-4.33714-4.447-4.03092-6.3861.82548-5.227,2.093-10.8532,4.97253-15.11044,1.73258-2.56142,6.80827-2.85874,10.38157-4.17352Z" transform="translate(86.73269 -563.69453)"/><path class="cls-1" d="M826.68,576.86759c3.8302,1.48035,5.85137,1.9772,7.58019,2.97912q10.9659,6.35524,21.777,12.97694c4.88616,2.99222,5.74723,7.24244,2.3469,11.695-3.88215,5.0833-8.17256,9.87747-12.53979,14.55984-3.72635,3.99523-7.70352,3.566-11.20193-.46891-5.87709-6.77833-11.95015-13.42375-17.28744-20.61083-1.6023-2.15757-2.40765-6.75467-1.183-8.79453C818.98731,584.51472,823.27471,580.71012,826.68,576.86759Z" transform="translate(86.73269 -563.69453)"/><path class="cls-1" d="M832.13405,630.45581c-5.15284,8.794-9.37221,16.58143-14.33947,23.85762-.77019,1.12815-5.57525.85588-7.46632-.37758-7.707-5.02671-15.04336-10.6291-22.446-16.11431-7.83024-5.802-1.58622-11.32338.5035-16.86747,1.99776-5.3,5.65508-6.6865,11.02063-4.83131,8.20881,2.83832,16.61815,5.11488,24.74967,8.14737C826.82234,625.26449,828.88944,627.86766,832.13405,630.45581Z" transform="translate(86.73269 -563.69453)"/><path class="cls-1" d="M475.95709,735.55528c-5.77269,7.87017-10.57648,15.04-16.1819,21.51491-1.0648,1.23-6.31085.774-7.90288-.731a175.44151,175.44151,0,0,1-18.22621-19.6456c-5.59882-7.21287,2.50213-11.40145,5.163-16.5916,2.18888-4.26963,6.24218-4.906,10.54054-2.72133,6.82415,3.46847,13.79726,6.693,20.35481,10.61147C472.13154,729.4425,473.56289,732.56129,475.95709,735.55528Z" transform="translate(86.73269 -563.69453)"/><path class="cls-1" d="M340.03451,715.4336c3.75259,1.55241,5.89308,2.352,7.96058,3.30945,6.04052,2.79723,12.03732,5.68915,18.07916,8.48354,5.34424,2.47172,6.46628,6.53714,3.64177,11.30851a164.93784,164.93784,0,0,1-10.77278,15.91148c-3.43652,4.50838-7.541,4.86076-11.66952.516-5.12435-5.39281-10.6659-10.44114-15.30188-16.22081-1.89862-2.367-3.54574-7.09043-2.43492-9.28858C332.1584,724.26563,336.50416,719.95054,340.03451,715.4336Z" transform="translate(86.73269 -563.69453)"/><path class="cls-1" d="M303.74261,714.93062c3.77673,4.59455,8.0251,8.56416,10.611,13.42014,1.271,2.38688.5823,7.29-1.16715,9.53446-4.84891,6.22085-10.71578,11.648-16.18937,17.38022-3.89985,4.08415-7.92178,3.54076-11.09028-.54616a118.53854,118.53854,0,0,1-11.07119-16.53465c-1.17169-2.19312-1.01648-7.44848.349-8.26367C283.89447,724.721,293.11083,720.37038,303.74261,714.93062Z" transform="translate(86.73269 -563.69453)"/><path class="cls-1" d="M393.28216,715.00851c10.66851,5.40845,19.92663,9.701,28.62384,14.92809,1.359.81677,1.19418,6.40908-.05932,8.88358a101.09877,101.09877,0,0,1-10.14577,15.31839c-3.60464,4.722-7.788,5.31553-12.1868.57521-5.04482-5.43651-10.74261-10.34456-15.20334-16.20837-1.87657-2.46687-2.81432-7.547-1.53153-10.11525C385.2278,723.48812,389.57516,719.53569,393.28216,715.00851Z" transform="translate(86.73269 -563.69453)"/></svg>