<svg id="图层_1" data-name="图层 1" xmlns="http://www.w3.org/2000/svg" viewBox="0 0 25 25"><defs><style>.cls-1{fill:#80baa1;}.cls-2{fill:#fff;}</style></defs><title>icon2</title><g id="组_12" data-name="组 12"><circle id="椭圆_7" data-name="椭圆 7" class="cls-1" cx="12.5" cy="12.5" r="12.5"/><path id="联合_2" data-name="联合 2" class="cls-2" d="M4.706,10.765l6.1-6.4a1.949,1.949,0,0,1,1.327-.568h.2a1.985,1.985,0,0,1,1.517.568l6.1,6.4a1.307,1.307,0,0,1-.31,2.073,2.078,2.078,0,0,1-2.528-.255L14.028,9.347V19.583a1.8,1.8,0,0,1-3.6,0V9.562L7.549,12.583a2.079,2.079,0,0,1-2.529.255,1.4,1.4,0,0,1-.693-1.165A1.31,1.31,0,0,1,4.706,10.765Z"/></g></svg>