<svg id="图层_2" data-name="图层 2" xmlns="http://www.w3.org/2000/svg" viewBox="0 0 31 31"><defs><style>.cls-1{fill:#80baa1;}</style></defs><title>icon</title><path id="联合_5" data-name="联合 5" class="cls-1" d="M20.174,31a4,4,0,0,1-4-4V18.174a2,2,0,0,1,2-2H27a4,4,0,0,1,4,4V27a4,4,0,0,1-4,4ZM4,31a4,4,0,0,1-4-4V20.174a4,4,0,0,1,4-4h8.826a2,2,0,0,1,2,2V27a4,4,0,0,1-4,4ZM18.174,14.826a2,2,0,0,1-2-2V4a4,4,0,0,1,4-4H27a4,4,0,0,1,4,4v6.827a4,4,0,0,1-4,4ZM4,14.826a4,4,0,0,1-4-4V4A4,4,0,0,1,4,0h6.827a4,4,0,0,1,4,4v8.826a2,2,0,0,1-2,2Z"/></svg>