<svg xmlns="http://www.w3.org/2000/svg" xmlns:xlink="http://www.w3.org/1999/xlink" width="38" height="38" viewBox="0 0 38 38">
  <defs>
    <style>
      .cls-1 {
        fill: #d2f5d4;
      }

      .cls-2 {
        fill: #fff;
      }

      .cls-3 {
        filter: url(#椭圆_86);
      }
    </style>
    <filter id="椭圆_86" x="0" y="0" width="38" height="38" filterUnits="userSpaceOnUse">
      <feOffset dy="1" input="SourceAlpha"/>
      <feGaussianBlur stdDeviation="0.5" result="blur"/>
      <feFlood flood-color="#cff4d1" flood-opacity="0.553"/>
      <feComposite operator="in" in2="blur"/>
      <feComposite in="SourceGraphic"/>
    </filter>
  </defs>
  <g id="组_256" data-name="组 256" transform="translate(-40.5 -688.5)">
    <g class="cls-3" transform="matrix(1, 0, 0, 1, 40.5, 688.5)">
      <circle id="椭圆_86-2" data-name="椭圆 86" class="cls-1" cx="17.5" cy="17.5" r="17.5" transform="translate(1.5 0.5)"/>
    </g>
    <path id="联合_7" data-name="联合 7" class="cls-2" d="M-478.406,13.444-483.545,8.2A1.78,1.78,0,0,1-484,6.886a1.78,1.78,0,0,1,.454-1.309l5.138-5.248A1.012,1.012,0,0,1-476.742.6a1.885,1.885,0,0,1-.2,2.175l-4.029,4.115L-476.947,11a1.886,1.886,0,0,1,.2,2.176,1.11,1.11,0,0,1-.935.6A1.018,1.018,0,0,1-478.406,13.444Z" transform="translate(539 700)"/>
  </g>
</svg>
