<svg id="图层_1" data-name="图层 1" xmlns="http://www.w3.org/2000/svg" viewBox="0 0 995.74871 995.74871"><defs><style>.cls-1{fill:#80baa1;stroke:#80baa1;stroke-miterlimit:10;stroke-width:31px;}</style></defs><title>icon</title><path class="cls-1" d="M623.49921,194.47671a125.11666,125.11666,0,0,1-12.53462,54.7586l175.7406.00006a50,50,0,0,1,50,50l-.00006,175.7406a125.62474,125.62474,0,1,0-.00007,226.18024l-.00006,175.7406a50,50,0,0,1-50,49.99992l-577.66143-.00019a50,50,0,0,1-50-50l.00019-577.66144a50,50,0,0,1,50-50l175.7406,0a125.63547,125.63547,0,1,1,238.71486-54.75852Z"/></svg>