<svg id="图层_1" data-name="图层 1" xmlns="http://www.w3.org/2000/svg" xmlns:xlink="http://www.w3.org/1999/xlink" viewBox="0 0 300.09999 300"><defs><style>.cls-1{fill:#fff;}.cls-2{fill:url(#未命名的渐变);}</style><linearGradient id="未命名的渐变" x1="659.48327" y1="2074.83044" x2="840.59014" y2="1899.49695" gradientTransform="translate(-656.85162 -1894.0791)" gradientUnits="userSpaceOnUse"><stop offset="0" stop-color="#50bd9b"/><stop offset="1" stop-color="#b5f6c9"/></linearGradient></defs><title>修改1</title><rect class="cls-1" width="300" height="300"/><path id="路径_86" data-name="路径 86" class="cls-2" d="M127.7,201.3a35.819,35.819,0,0,0-3.4-15.1h48.3a13.72086,13.72086,0,0,0,13.7-13.7V124.2a34.52844,34.52844,0,1,1,.1-62.2V13.7A13.72085,13.72085,0,0,0,172.7,0H13.7A13.78579,13.78579,0,0,0,0,13.7V172.5a13.72086,13.72086,0,0,0,13.7,13.7H62a34.52839,34.52839,0,1,0,62.2,30,33.30625,33.30625,0,0,0,3.5-14.9Z" transform="translate(113.7 32.1)"/></svg>