<svg id="图层_1" data-name="图层 1" xmlns="http://www.w3.org/2000/svg" xmlns:xlink="http://www.w3.org/1999/xlink" viewBox="0 0 300.00003 300"><defs><style>.cls-1{fill:#fff;}.cls-2{fill:url(#未命名的渐变);}</style><linearGradient id="未命名的渐变" x1="-652.54001" y1="812.88342" x2="-471.45556" y2="637.57165" gradientTransform="translate(-468.85164 867.92084) rotate(180)" gradientUnits="userSpaceOnUse"><stop offset="0" stop-color="#50bd9b"/><stop offset="1" stop-color="#b5f6c9"/></linearGradient></defs><title>icon修改3</title><rect class="cls-1" width="300" height="300"/><path id="路径_86" data-name="路径 86" class="cls-2" d="M58.61353,34.49394A34.36418,34.36418,0,0,0,62.05774,49.545H13.746A13.746,13.746,0,0,0,0,63.29094v48.31177A34.53485,34.53485,0,1,1,0,173.784v48.31171a13.746,13.746,0,0,0,13.746,13.746h158.8048a13.75374,13.75374,0,0,0,13.746-13.746V63.29094a13.75373,13.75373,0,0,0-13.746-13.746H124.239a34.53486,34.53486,0,1,0-65.6409-15.051Z" transform="translate(113.70325 32.07915)"/></svg>