<svg id="图层_1" data-name="图层 1" xmlns="http://www.w3.org/2000/svg" xmlns:xlink="http://www.w3.org/1999/xlink" viewBox="0 0 300 300"><defs><style>.cls-1{fill:#fff;}.cls-2{fill:url(#未命名的渐变);}</style><linearGradient id="未命名的渐变" x1="684.46004" y1="787.88344" x2="865.5445" y2="612.57166" gradientTransform="translate(842.92085 -681.85164) rotate(90)" gradientUnits="userSpaceOnUse"><stop offset="0" stop-color="#50bd9b"/><stop offset="1" stop-color="#b5f6c9"/></linearGradient></defs><title>首页icon修改2</title><rect class="cls-1" width="300" height="300"/><path id="路径_86" data-name="路径 86" class="cls-2" d="M34.4939,127.68323A34.36408,34.36408,0,0,0,49.545,124.239v48.31177a13.746,13.746,0,0,0,13.746,13.746h48.31172a34.53486,34.53486,0,1,1,62.18129,0h48.3117a13.746,13.746,0,0,0,13.746-13.746h0V13.746A13.75373,13.75373,0,0,0,222.0957,0H63.291A13.75372,13.75372,0,0,0,49.545,13.746V62.05773A34.53487,34.53487,0,1,0,34.4939,127.69867Z" transform="translate(64.15829 56.85162)"/></svg>