<svg xmlns="http://www.w3.org/2000/svg" xmlns:xlink="http://www.w3.org/1999/xlink" width="414" height="896" viewBox="0 0 414 896">
  <defs>
    <style>
      .cls-1 {
        clip-path: url(#clip-详情页2);
      }

      .cls-2 {
        fill: #92bdef;
      }

      .cls-2, .cls-3, .cls-4, .cls-5 {
        isolation: isolate;
      }

      .cls-3 {
        fill: #ff8584;
      }

      .cls-4 {
        fill: #ffb65f;
      }

      .cls-5 {
        fill: #ffe57a;
      }

      .cls-6 {
        fill: #fff;
      }
    </style>
    <clipPath id="clip-详情页2">
      <rect width="414" height="896"/>
    </clipPath>
  </defs>
  <g id="详情页2" class="cls-1">
    <rect class="cls-6" width="414" height="896"/>
    <path id="路径_11" data-name="路径 11" class="cls-2" d="M-3388.3-2348.889a29.139,29.139,0,0,1,12.753,2.919V-2386.9a11.645,11.645,0,0,1,11.645-11.645h40.93a29.137,29.137,0,0,0-2.919,12.753,29.258,29.258,0,0,0,29.258,29.258,29.258,29.258,0,0,0,29.258-29.258,29.137,29.137,0,0,0-2.919-12.753h40.93a11.645,11.645,0,0,1,11.645,11.645v134.536a11.645,11.645,0,0,1-11.645,11.645H-3363.9a11.645,11.645,0,0,1-11.645-11.645v-40.93a29.139,29.139,0,0,1-12.753,2.919,29.258,29.258,0,0,1-29.258-29.258A29.258,29.258,0,0,1-3388.3-2348.889Z" transform="translate(3651.35 3147.498)"/>
    <path id="路径_12" data-name="路径 12" class="cls-3" d="M-4096.337-3218.46a19.16,19.16,0,0,1-8.384-1.919v26.906a7.655,7.655,0,0,1-7.655,7.655h-26.905a19.157,19.157,0,0,0,1.919-8.383,19.233,19.233,0,0,0-19.233-19.233,19.233,19.233,0,0,0-19.233,19.233,19.158,19.158,0,0,0,1.919,8.383h-26.906a7.655,7.655,0,0,1-7.655-7.655v-88.439a7.655,7.655,0,0,1,7.655-7.655h88.439a7.655,7.655,0,0,1,7.655,7.655v26.906a19.157,19.157,0,0,1,8.384-1.919,19.233,19.233,0,0,1,19.233,19.233A19.233,19.233,0,0,1-4096.337-3218.46Z" transform="translate(3333.567 -3459.434) rotate(-90)"/>
    <path id="路径_14" data-name="路径 14" class="cls-4" d="M-3160.919-2994.63a44.76,44.76,0,0,1,4.482-19.586h-62.855a17.883,17.883,0,0,1-17.884-17.883v-62.855a44.747,44.747,0,0,0,19.586,4.483,44.931,44.931,0,0,0,44.932-44.932,44.932,44.932,0,0,0-44.932-44.932,44.773,44.773,0,0,0-19.586,4.482v-62.854a17.884,17.884,0,0,1,17.884-17.884h206.609a17.883,17.883,0,0,1,17.882,17.884V-3032.1a17.883,17.883,0,0,1-17.882,17.883h-62.857a44.747,44.747,0,0,1,4.483,19.586,44.931,44.931,0,0,1-44.932,44.932A44.931,44.931,0,0,1-3160.919-2994.63Z" transform="translate(3248.965 -2852.175) rotate(-90)"/>
    <path id="路径_13" data-name="路径 13" class="cls-5" d="M-3999.1-2518.08a56.41,56.41,0,0,1-5.651,24.684h79.22a22.539,22.539,0,0,1,22.539,22.539v79.22a56.392,56.392,0,0,0-24.685-5.651,56.629,56.629,0,0,0-56.629,56.629,56.629,56.629,0,0,0,56.629,56.628,56.392,56.392,0,0,0,24.685-5.65v79.22a22.538,22.538,0,0,1-22.539,22.539h-260.4a22.539,22.539,0,0,1-22.539-22.539v-260.4a22.538,22.538,0,0,1,22.539-22.539h79.219a56.416,56.416,0,0,1-5.649-24.684,56.629,56.629,0,0,1,56.629-56.629A56.629,56.629,0,0,1-3999.1-2518.08Z" transform="translate(-3641.68 -2345.667) rotate(-180)"/>
  </g>
</svg>
