<svg id="图层_1" data-name="图层 1" xmlns="http://www.w3.org/2000/svg" xmlns:xlink="http://www.w3.org/1999/xlink" viewBox="0 0 1248.77622 1500"><defs><style>.cls-1{fill:url(#未命名的渐变_16);}.cls-2{fill:url(#未命名的渐变_16-2);}.cls-3{fill:url(#未命名的渐变_16-3);}.cls-4{fill:url(#未命名的渐变_16-4);}.cls-5{fill:url(#未命名的渐变_16-5);}</style><linearGradient id="未命名的渐变_16" x1="460.21554" y1="1013.93514" x2="1210.88813" y2="330.22395" gradientUnits="userSpaceOnUse"><stop offset="0" stop-color="#50bd9b"/><stop offset="1" stop-color="#b5f6c9"/></linearGradient><linearGradient id="未命名的渐变_16-2" x1="476.85577" y1="1032.20508" x2="1227.52836" y2="348.49389" xlink:href="#未命名的渐变_16"/><linearGradient id="未命名的渐变_16-3" x1="290.02485" y1="1193.02919" x2="290.02485" y2="1193.02919" xlink:href="#未命名的渐变_16"/><linearGradient id="未命名的渐变_16-4" x1="674.08176" y1="1248.74703" x2="1424.75436" y2="565.03584" xlink:href="#未命名的渐变_16"/><linearGradient id="未命名的渐变_16-5" x1="352.19154" y1="895.33147" x2="1102.86413" y2="211.62028" xlink:href="#未命名的渐变_16"/></defs><title>感恩日记icon</title><g id="爱心本子"><path class="cls-1" d="M1167.18662,1500H332.81338c-114.25142,0-207.20149-92.95007-207.20149-207.20149V207.20149C125.61189,92.95007,218.562,0,332.81338,0h834.37324c114.25142,0,207.20149,92.95007,207.20149,207.20149v1085.597C1374.38811,1407.04993,1281.438,1500,1167.18662,1500ZM332.81338,98.80782A108.51637,108.51637,0,0,0,224.41971,207.20149v1085.597a108.51637,108.51637,0,0,0,108.39367,108.39367h834.37324a108.51637,108.51637,0,0,0,108.39367-108.39367V207.20149A108.51637,108.51637,0,0,0,1167.18662,98.80782Z" transform="translate(-125.61189)"/><path class="cls-2" d="M682.96,1042.26041H357.15617a49.40391,49.40391,0,1,1,0-98.80782H682.96a49.40391,49.40391,0,0,1,0,98.80782Z" transform="translate(-125.61189)"/><path class="cls-3" d="M290.02485,1193.02919" transform="translate(-125.61189)"/><path class="cls-4" d="M1113.35578,1242.43358H357.15617a49.40391,49.40391,0,0,1,0-98.80782h756.19961a49.40391,49.40391,0,0,1,0,98.80782Z" transform="translate(-125.61189)"/></g><path class="cls-5" d="M1190.22206,367.32158c.44295,141.97392-244.1167,310.28466-272.81119,328.89622,5.1634,13.52862-66.99943-43.28647-153.28207-122.56366C449.99505,290.26565,817.44053,102.38493,914.276,329.67328,986.66,163.30763,1187.91391,218.19813,1190.22206,367.32158Z" transform="translate(-125.61189)"/></svg>