<svg xmlns="http://www.w3.org/2000/svg" xmlns:xlink="http://www.w3.org/1999/xlink" width="414" height="896" viewBox="0 0 414 896">
  <defs>
    <style>
      .cls-1 {
        clip-path: url(#clip-登录界面_1);
      }

      .cls-2 {
        fill: #92bdef;
        opacity: 0.4;
      }

      .cls-2, .cls-3, .cls-4, .cls-5 {
        isolation: isolate;
      }

      .cls-3 {
        fill: #ff8584;
        opacity: 0.8;
      }

      .cls-4 {
        fill: #ffb65f;
      }

      .cls-5 {
        fill: #ffe57a;
      }

      .cls-6, .cls-7 {
        fill: #fff;
      }

      .cls-6 {
        opacity: 0.7;
      }
    </style>
    <clipPath id="clip-登录界面_1">
      <rect width="414" height="896"/>
    </clipPath>
  </defs>
  <g id="登录界面_1" data-name="登录界面 – 1" class="cls-1">
    <rect class="cls-7" width="414" height="896"/>
    <path id="路径_11" data-name="路径 11" class="cls-2" d="M-3388.3-2348.889a29.139,29.139,0,0,1,12.753,2.919V-2386.9a11.645,11.645,0,0,1,11.645-11.645h40.93a29.137,29.137,0,0,0-2.919,12.753,29.258,29.258,0,0,0,29.258,29.258,29.258,29.258,0,0,0,29.258-29.258,29.137,29.137,0,0,0-2.919-12.753h40.93a11.645,11.645,0,0,1,11.645,11.645v134.536a11.645,11.645,0,0,1-11.645,11.645H-3363.9a11.645,11.645,0,0,1-11.645-11.645v-40.93a29.139,29.139,0,0,1-12.753,2.919,29.258,29.258,0,0,1-29.258-29.258A29.258,29.258,0,0,1-3388.3-2348.889Z" transform="translate(2012.683 4324.889) rotate(31)"/>
    <path id="路径_12" data-name="路径 12" class="cls-3" d="M-4096.337-3218.46a19.16,19.16,0,0,1-8.384-1.919v26.906a7.655,7.655,0,0,1-7.655,7.655h-26.905a19.157,19.157,0,0,0,1.919-8.383,19.233,19.233,0,0,0-19.233-19.233,19.233,19.233,0,0,0-19.233,19.233,19.158,19.158,0,0,0,1.919,8.383h-26.906a7.655,7.655,0,0,1-7.655-7.655v-88.439a7.655,7.655,0,0,1,7.655-7.655h88.439a7.655,7.655,0,0,1,7.655,7.655v26.906a19.157,19.157,0,0,1,8.384-1.919,19.233,19.233,0,0,1,19.233,19.233A19.233,19.233,0,0,1-4096.337-3218.46Z" transform="translate(5259.918 275.958) rotate(-41)"/>
    <path id="路径_14" data-name="路径 14" class="cls-4" d="M-3221.515-3202.793a9.192,9.192,0,0,1,.921-4.022H-3233.5a3.672,3.672,0,0,1-3.673-3.672V-3223.4a9.189,9.189,0,0,0,4.022.921,9.227,9.227,0,0,0,9.227-9.227,9.227,9.227,0,0,0-9.227-9.227,9.2,9.2,0,0,0-4.022.92v-12.908a3.673,3.673,0,0,1,3.673-3.673h42.429a3.673,3.673,0,0,1,3.672,3.673v42.429a3.672,3.672,0,0,1-3.672,3.672h-12.908a9.189,9.189,0,0,1,.921,4.022,9.227,9.227,0,0,1-9.227,9.227A9.227,9.227,0,0,1-3221.515-3202.793Z" transform="translate(-1541.454 4441.81) rotate(65)"/>
    <path id="路径_13" data-name="路径 13" class="cls-5" d="M-3999.1-2518.08a56.41,56.41,0,0,1-5.651,24.684h79.22a22.539,22.539,0,0,1,22.539,22.539v79.22a56.392,56.392,0,0,0-24.685-5.651,56.629,56.629,0,0,0-56.629,56.629,56.629,56.629,0,0,0,56.629,56.628,56.392,56.392,0,0,0,24.685-5.65v79.22a22.538,22.538,0,0,1-22.539,22.539h-260.4a22.539,22.539,0,0,1-22.539-22.539v-260.4a22.538,22.538,0,0,1,22.539-22.539h79.219a56.416,56.416,0,0,1-5.649-24.684,56.629,56.629,0,0,1,56.629-56.629A56.629,56.629,0,0,1-3999.1-2518.08Z" transform="translate(-3104.005 3145.009) rotate(108)"/>
    <rect id="矩形_52" data-name="矩形 52" class="cls-6" width="414" height="896"/>
  </g>
</svg>
