<svg id="图层_1" data-name="图层 1" xmlns="http://www.w3.org/2000/svg" viewBox="0 0 241.85117 109.71538"><defs><style>.cls-1{fill:#ff5757;}.cls-2{fill:#6b4821;}.cls-3{fill:#fff;}.cls-4{fill:#ff9472;}.cls-5{opacity:0.3;isolation:isolate;}.cls-6{fill:#ff5700;}</style></defs><title>2</title><g id="组_230" data-name="组 230"><g id="路径_909" data-name="路径 909"><path class="cls-1" d="M795.75856,1012.23428a13.44479,13.44479,0,0,0-24.47074-6.49269,1.07379,1.07379,0,0,1-.88008.476h0a1.0738,1.0738,0,0,1-.88009-.476,13.44478,13.44478,0,0,0-24.47073,6.49269,17.15887,17.15887,0,0,0,3.69745,11.90049,12.54334,12.54334,0,0,0,.99632,1.14023l20.65149,20.65149,20.646-20.657a12.53485,12.53485,0,0,0,.99632-1.14023A17.15889,17.15889,0,0,0,795.75856,1012.23428Z" transform="translate(-582.11432 -999.92023)"/></g><g id="路径_910" data-name="路径 910"><path class="cls-1" d="M661.02287,1012.23428a13.44479,13.44479,0,0,0-24.47073-6.49269,1.07378,1.07378,0,0,1-.88008.476h0a1.07379,1.07379,0,0,1-.88009-.476,13.44478,13.44478,0,0,0-24.47072,6.49269,17.15882,17.15882,0,0,0,3.69745,11.90049,12.54334,12.54334,0,0,0,.99632,1.14023l20.65151,20.65149L656.318,1025.275a12.54779,12.54779,0,0,0,.99632-1.14023A17.15888,17.15888,0,0,0,661.02287,1012.23428Z" transform="translate(-582.11432 -999.92023)"/></g><g id="路径_911" data-name="路径 911"><path class="cls-2" d="M703.34988,1092.13915h1.107a165.179,165.179,0,0,1,32.14792,3.02771,39.53179,39.53179,0,0,0,13.19017-26.015c0-12.90236-12.54256-18.62011-30.183-20.54633v8.38567H686.84416v-8.441c-17.83413,1.88747-30.55382,7.59418-30.55382,20.59062a39.60373,39.60373,0,0,0,13.28427,26.10912,164.73674,164.73674,0,0,1,32.65715-3.12733Z" transform="translate(-582.11432 -999.92023)"/></g><g id="路径_912" data-name="路径 912"><path class="cls-3" d="M703.22256,1056.99119h16.38393v-8.40231a172.00359,172.00359,0,0,0-32.76232-.03875v8.44106Z" transform="translate(-582.11432 -999.92023)"/></g><g id="路径_913" data-name="路径 913"><path class="cls-4" d="M736.59929,1095.14471a165.18525,165.18525,0,0,0-32.14792-3.02771h-2.21406a164.73072,164.73072,0,0,0-32.65716,3.12733,46.099,46.099,0,0,0,67.01914-.09962Z" transform="translate(-582.11432 -999.92023)"/></g><g id="椭圆_71" data-name="椭圆 71" class="cls-5"><ellipse class="cls-6" cx="25.40063" cy="67.74265" rx="25.40063" ry="19.14042"/></g><g id="椭圆_72" data-name="椭圆 72" class="cls-5"><ellipse class="cls-6" cx="216.45055" cy="67.74265" rx="25.40063" ry="19.14042"/></g></g></svg>