<svg id="图层_1" data-name="图层 1" xmlns="http://www.w3.org/2000/svg" viewBox="0 0 183.99264 113.82705"><defs><style>.cls-1{opacity:0.3;isolation:isolate;}.cls-2{fill:#ff5757;}.cls-3{fill:#6b4821;}.cls-4{fill:#ff9472;}.cls-5{fill:#fff;}</style></defs><title>3</title><g id="组_229" data-name="组 229"><g id="椭圆_69" data-name="椭圆 69" class="cls-1"><ellipse class="cls-2" cx="19.32307" cy="63.33577" rx="19.32307" ry="14.56288"/></g><g id="椭圆_70" data-name="椭圆 70" class="cls-1"><ellipse class="cls-2" cx="164.66957" cy="63.33577" rx="19.32307" ry="14.56288"/></g><g id="路径_904" data-name="路径 904"><path class="cls-3" d="M691.82846,718.97944a4.14885,4.14885,0,0,1-4.13512-3.87025,19.02029,19.02029,0,0,1,0-2.71891,20.32363,20.32363,0,1,1,40.55658,2.7135,4.14969,4.14969,0,1,1-8.281-.55135,12.02407,12.02407,0,0,0-23.99449-1.60539,13.1644,13.1644,0,0,0,0,1.6,4.15111,4.15111,0,0,1-3.85945,4.4243C692.01765,718.97674,691.92575,718.97944,691.82846,718.97944Z" transform="translate(-657.79315 -693.42583)"/></g><g id="路径_905" data-name="路径 905"><path class="cls-3" d="M775.46594,718.97944a4.14886,4.14886,0,0,1-4.13512-3.87025,19.02029,19.02029,0,0,1,0-2.71891,20.32363,20.32363,0,0,1,40.55658,2.7135,4.19349,4.19349,0,0,1-4.41619,3.86755,4.15049,4.15049,0,0,1-3.86485-4.4189,12.03983,12.03983,0,0,0-11.19455-12.79724A12.023,12.023,0,0,0,779.61187,712.947a13.1644,13.1644,0,0,0,0,1.6,4.15111,4.15111,0,0,1-3.85945,4.4243C775.65513,718.97674,775.56324,718.97944,775.46594,718.97944Z" transform="translate(-657.79315 -693.42583)"/></g><g id="路径_906" data-name="路径 906"><path class="cls-3" d="M796.27611,737.39978v4.893H703.28624v-4.893c-3.91886,2.09226-8.4023,10.871-8.4023,23.34709a48.77544,48.77544,0,0,0,6.51482,25.71613c9.21595-6.64214,27.04455-11.12557,47.53-11.12557h1.66053c20.47991,0,38.314,4.49451,47.53,11.12557a48.77545,48.77545,0,0,0,6.52037-25.71613C804.67839,748.27627,800.2005,739.492,796.27611,737.39978Z" transform="translate(-657.79315 -693.42583)"/></g><g id="路径_907" data-name="路径 907"><path class="cls-4" d="M750.62805,775.343h-1.66053c-20.47992,0-38.31405,4.49452-47.53,11.12557,7.24546,11.77871,21.36553,20.38027,46.45619,20.78435h3.81922c25.09066-.40408,39.21072-9.00562,46.45617-20.78435C788.94207,779.83748,771.1135,775.343,750.62805,775.343Z" transform="translate(-657.79315 -693.42583)"/></g><g id="路径_908" data-name="路径 908"><path class="cls-5" d="M749.78669,732.396s-39.02253.5535-46.49493,4.98161v4.893h92.98986v-4.893C788.83137,732.93294,749.78669,732.396,749.78669,732.396Z" transform="translate(-657.79315 -693.42583)"/></g></g></svg>