<svg id="图层_3" data-name="图层 3" xmlns="http://www.w3.org/2000/svg" viewBox="0 0 800 800"><defs><style>.cls-1{fill:#ffb65f;}.cls-1,.cls-3,.cls-4,.cls-5{isolation:isolate;}.cls-2{fill:#ff5757;opacity:0.3;}.cls-3{fill:none;stroke:#6b4821;stroke-linecap:round;stroke-linejoin:round;stroke-width:22px;}.cls-4{fill:#6b4821;}.cls-5{fill:#ff9472;}.cls-6{fill:#fff;}</style></defs><title>表情6</title><rect class="cls-1" width="800" height="800" rx="50"/><ellipse class="cls-2" cx="140.5" cy="425" rx="69" ry="52"/><ellipse class="cls-2" cx="659.5" cy="425" rx="69" ry="52"/><path class="cls-3" d="M308.29844,275.27114c0-34.02842-25.79752-61.61389-57.62037-61.61389s-57.62037,27.58547-57.62037,61.61389"/><path class="cls-3" d="M606.9423,275.27114c0-34.02842-25.79752-61.61389-57.62037-61.61389s-57.62037,27.58547-57.62037,61.61389"/><path class="cls-4" d="M566,355.88184v17.47H234v-17.47c-14,7.47-30,38.82-30,83.37,0,32.12,6.42,64.38,23.29,91.82,32.9-23.67,96.56-39.72,169.71-39.72,1,0,2,0,3,.01,1-.01,2-.01,3-.01,73.15,0,136.81,16.05,169.71,39.72,16.87-27.44,23.29-59.7,23.29-91.82C596,394.70184,580,363.35187,566,355.88184Z"/><path class="cls-5" d="M403,491.35187c-1,0-2,0-3,.01-1-.01-2-.01-3-.01-73.15,0-136.81,16.05-169.71,39.72,25.87,42.06,76.30005,72.78,165.89,74.22v.06c.17,0,.34-.01.51-.01.16,0,.33.01.5.01.95,0,1.87-.02,2.81-.02s1.86.02,2.81.02h.38c.95,0,1.87-.02,2.81-.02s1.86.02,2.81.02c.17,0,.34-.01.5-.01.17,0,.34.01.51.01v-.06c89.59-1.44,140.02-32.16,165.89-74.22C539.81,507.40186,476.15,491.35187,403,491.35187Z"/><path class="cls-6" d="M400,338s-139.34,1.91187-166,17.88184v17.47H566v-17.47C539.34,339.91187,400,338,400,338Z"/></svg>