<?xml version="1.0" encoding="utf-8"?>
<!-- Generator: Adobe Illustrator 24.0.0, SVG Export Plug-In . SVG Version: 6.00 Build 0)  -->
<svg version="1.1" id="图层_1" xmlns="http://www.w3.org/2000/svg" xmlns:xlink="http://www.w3.org/1999/xlink" x="0px" y="0px"
	 viewBox="0 0 220.8 72.4" style="enable-background:new 0 0 220.8 72.4;" xml:space="preserve">
<style type="text/css">
	.st0{fill:#6B4821;}
</style>
<g id="组_233_1_" transform="translate(-89.763 -672.696)">
	<g id="路径_1046_1_">
		<path d="M256.3,695.4c6,0,10.8-4.8,10.9-10.8s-4.8-10.8-10.8-10.9c-0.6,0-1.1,0-1.7,0.1c-2.9,2.5-5.8,5.2-8.4,7.6l-0.4,0.3
			c-1.5,5.8,1.9,11.7,7.7,13.2C254.4,695.3,255.4,695.4,256.3,695.4L256.3,695.4z"/>
	</g>
	<g id="路径_1048_1_">
		<path d="M144,695.4c-6,0-10.8-4.8-10.9-10.8c0-6,4.8-10.8,10.8-10.9c0.6,0,1.1,0,1.7,0.1c2.9,2.5,5.8,5.2,8.4,7.6l0.4,0.3
			c1.5,5.8-1.9,11.7-7.7,13.2C145.8,695.3,144.9,695.4,144,695.4L144,695.4z"/>
	</g>
	<g id="路径_1049_1_">
		<path class="st0" d="M171.1,744c-1.1,0-2.3-0.5-3.1-1.4c-1.5-1.7-1.4-4.3,0.3-5.9l29.7-26.5c1.6-1.4,4-1.4,5.5,0l28.4,25.4
			c1.7,1.5,1.9,4.2,0.3,5.9c-1.5,1.7-4.1,1.9-5.9,0.3l-25.6-22.9L173.9,743C173.1,743.7,172.1,744,171.1,744z"/>
	</g>
</g>
</svg>
