<svg id="图层_4" data-name="图层 4" xmlns="http://www.w3.org/2000/svg" viewBox="0 0 800 800"><defs><style>.cls-1{fill:#fcd950;}.cls-1,.cls-2,.cls-3,.cls-5{isolation:isolate;}.cls-2{fill:#ff5757;}.cls-3{fill:#6b4821;}.cls-4{fill:#fff;}.cls-5{fill:#ff9472;}.cls-6{fill:#ff5700;opacity:0.3;}</style></defs><title>表情5</title><rect class="cls-1" width="800" height="800" rx="50"/><path class="cls-2" d="M651.87656,276.4208c-2.3943-34.38634-47.2628-45.58566-66.47584-17.63582a2.91141,2.91141,0,0,1-2.39083,1.28859h0a2.91139,2.91139,0,0,1-2.39082-1.28859c-19.213-27.94984-64.08155-16.75052-66.47585,17.63582a46.65038,46.65038,0,0,0,10.05146,32.32539,34.0852,34.0852,0,0,0,2.70808,3.09192l56.10713,56.10713L639.117,311.83811a34.08366,34.08366,0,0,0,2.70808-3.09192A46.65038,46.65038,0,0,0,651.87656,276.4208Z"/><path class="cls-2" d="M285.85678,276.4208c-2.3943-34.38634-47.2628-45.58566-66.47585-17.63582a2.91139,2.91139,0,0,1-2.39082,1.28859h0a2.91141,2.91141,0,0,1-2.39083-1.28859c-19.213-27.94984-64.08154-16.75052-66.47584,17.63582a46.65038,46.65038,0,0,0,10.05146,32.32539,34.08366,34.08366,0,0,0,2.70808,3.09192l56.10713,56.10713,56.10713-56.10713a34.0852,34.0852,0,0,0,2.70808-3.09192A46.65038,46.65038,0,0,0,285.85678,276.4208Z"/><path class="cls-3" d="M400.84583,493.43744c1-.01,2-.01,3-.01a448.73728,448.73728,0,0,1,87.32836,8.22559C513.34576,480.03448,527,453.18774,527,431c0-35.05554-34.07367-50.58978-82-55.82111V398H356V375.06934C307.54694,380.19305,273,395.7005,273,431c0,22.28241,13.77142,49.26337,36.1106,70.92914a447.50978,447.50978,0,0,1,88.73523-8.50171C398.84583,493.42743,399.84583,493.42743,400.84583,493.43744Z"/><path class="cls-4" d="M400.5,398H445V375.17889A418.87151,418.87151,0,0,0,400,373a422.43,422.43,0,0,0-44,2.06934V398Z"/><path class="cls-5" d="M491.17419,501.653a448.73728,448.73728,0,0,0-87.32836-8.22559c-1,0-2,0-3,.01-1-.01-2-.01-3-.01a447.50978,447.50978,0,0,0-88.73523,8.50171C332.17413,524.29749,364.37042,541,400,541,435.77625,541,468.09137,524.16,491.17419,501.653Z"/><ellipse class="cls-6" cx="140.5" cy="427" rx="69" ry="52"/><ellipse class="cls-6" cx="659.5" cy="427" rx="69" ry="52"/></svg>