<svg id="图层_7" data-name="图层 7" xmlns="http://www.w3.org/2000/svg" viewBox="0 0 800 800"><defs><style>.cls-1{fill:#ff8584;isolation:isolate;}.cls-2{fill:#fff;}.cls-3{fill:none;stroke:#6b4821;stroke-linecap:round;stroke-linejoin:round;stroke-width:22px;}</style></defs><title>表情2</title><rect class="cls-1" width="800" height="800" rx="50" transform="translate(1.36156 -1.35694) rotate(0.1947)"/><path class="cls-2" d="M622.73672,311.891c-18.5506-20.09644-47.02192-.13477-73.95411,23.33544a29.47464,29.47464,0,1,1-24.06994,21.61841c-22.09888,20.56519-20.85248,46.48926,3.06573,65.58765,8.99475,7.18237,17.78943,11.45386,26.22278,13.35327,29.51685,6.64844,54.60815-15.759,68.36658-44.11157S638.55166,329.02377,622.73672,311.891Z"/><path d="M553.1365,393.89071a29.49993,29.49993,0,1,0-4.35389-58.66431c-7.9115,6.89454-15.69061,14.09082-23.04589,20.66456-.35279.31543-.68244.636-1.024.95385a29.51877,29.51877,0,0,0,28.42383,37.0459Z"/><path class="cls-2" d="M177.26328,311.891c18.5506-20.09644,47.02192-.13477,73.95411,23.33544a29.47464,29.47464,0,1,0,24.06994,21.61841c22.09888,20.56519,20.85248,46.48926-3.06573,65.58765-8.99475,7.18237-17.78943,11.45386-26.22278,13.35327-29.51685,6.64844-54.60815-15.759-68.36658-44.11157S161.44834,329.02377,177.26328,311.891Z"/><path d="M246.8635,393.89071a29.49993,29.49993,0,1,1,4.35389-58.66431c7.9115,6.89454,15.69061,14.09082,23.04589,20.66456.35279.31543.68244.636,1.024.95385a29.51877,29.51877,0,0,1-28.42383,37.0459Z"/><polyline class="cls-3" points="320.75 515.188 401.75 442.838 479.25 512.062"/></svg>