<svg id="图层_1" data-name="图层 1" xmlns="http://www.w3.org/2000/svg" viewBox="0 0 220.75 97.68"><defs><style>.cls-1{opacity:0.55;isolation:isolate;}.cls-2{fill:#fff;}.cls-3{fill:#6b4821;}</style></defs><title>5</title><g id="组_232" data-name="组 232"><g id="矩形_293" data-name="矩形 293" class="cls-1"><rect class="cls-2" x="41.99367" y="43.34201" width="27.37807" height="54.3337"/></g><g id="矩形_294" data-name="矩形 294"><rect class="cls-2" x="39.96671" y="43.34201" width="31.43197" height="4.30373"/></g><g id="矩形_295" data-name="矩形 295" class="cls-1"><rect class="cls-2" x="151.37535" y="43.34201" width="27.37807" height="54.3337"/></g><g id="矩形_296" data-name="矩形 296"><rect class="cls-2" x="149.34841" y="43.34201" width="31.43197" height="4.30373"/></g><g id="直线_4" data-name="直线 4"><path d="M74.71585,45.47612h-38.236a4.25831,4.25831,0,1,1,0-8.51661h38.236a4.25831,4.25831,0,0,1,0,8.51661Z"/></g><g id="直线_5" data-name="直线 5"><path d="M184.27019,45.47612H146.0397a4.25831,4.25831,0,1,1,0-8.51661h38.23049a4.25831,4.25831,0,1,1,0,8.51661Z"/></g><g id="路径_915" data-name="路径 915"><path class="cls-3" d="M125.96245,80.49626a4.25118,4.25118,0,0,1-4.031-2.88878H98.82961A4.25928,4.25928,0,0,1,90.53756,76.238V73.34918a4.25941,4.25941,0,0,1,4.25831-4.25831h31.16658a4.25941,4.25941,0,0,1,4.25831,4.25831V76.238A4.25941,4.25941,0,0,1,125.96245,80.49626Z"/></g><g id="路径_916" data-name="路径 916"><path class="cls-3" d="M57.59113,22.97586a4.2579,4.2579,0,0,1-.32713-8.50275,10.734,10.734,0,0,0,9.89169-10.3519A4.349,4.349,0,0,1,71.55261.00706,4.25706,4.25706,0,0,1,75.66676,4.404a19.24194,19.24194,0,0,1-17.7374,18.558C57.81847,22.97031,57.7048,22.97586,57.59113,22.97586Z"/></g><g id="路径_917" data-name="路径 917"><path class="cls-3" d="M163.17273,22.97586c-.1109,0-.22733-.00555-.33823-.01387A19.24852,19.24852,0,0,1,145.09711,4.404,4.257,4.257,0,0,1,149.21125.00706c.0499-.00277.0998-.00277.14416-.00277a4.26011,4.26011,0,0,1,4.25831,4.11692,10.72894,10.72894,0,0,0,9.88614,10.3519,4.25779,4.25779,0,0,1-.32713,8.50275Z"/></g></g></svg>