<svg id="图层_4" data-name="图层 4" xmlns="http://www.w3.org/2000/svg" viewBox="0 0 657 298.00001"><defs><style>.cls-1{fill:#ff5757;}.cls-2{fill:#6b4821;}.cls-3{fill:#fff;}.cls-4{fill:#ff9472;}.cls-5{fill:#ff5700;opacity:0.3;isolation:isolate;}</style></defs><title>252,217,80</title><path class="cls-1" d="M651.87659,276.42081c-2.39429-34.38634-47.26282-45.58567-66.47583-17.63584a2.91148,2.91148,0,0,1-2.39081,1.28861h0a2.91129,2.91129,0,0,1-2.39081-1.28861c-19.213-27.94984-64.08154-16.75052-66.47583,17.63584a46.65035,46.65035,0,0,0,10.05145,32.32538,34.087,34.087,0,0,0,2.70807,3.09191L583.01,367.94522l56.107-56.10712a34.087,34.087,0,0,0,2.70807-3.09191A46.65027,46.65027,0,0,0,651.87659,276.42081Z" transform="translate(-71.5 -242.99999)"/><path class="cls-1" d="M285.85678,276.42081c-2.39429-34.38634-47.2628-45.58567-66.47586-17.63584a2.91138,2.91138,0,0,1-2.39082,1.28861h0a2.91141,2.91141,0,0,1-2.39083-1.28861c-19.213-27.94984-64.08154-16.75052-66.47583,17.63584a46.65046,46.65046,0,0,0,10.05146,32.32538,34.0856,34.0856,0,0,0,2.70808,3.09191l56.10713,56.10712,56.10712-56.10712a34.087,34.087,0,0,0,2.70807-3.09191A46.65043,46.65043,0,0,0,285.85678,276.42081Z" transform="translate(-71.5 -242.99999)"/><path class="cls-2" d="M400.84583,493.43744c1-.01,2-.01,3-.01a448.736,448.736,0,0,1,87.32836,8.22559C513.34576,480.03448,527,453.18774,527,431c0-35.05554-34.07367-50.58978-82-55.82111V398H356V375.06934C307.54694,380.19305,273,395.7005,273,431c0,22.28241,13.77142,49.26337,36.1106,70.92914a447.50867,447.50867,0,0,1,88.73523-8.50171C398.84583,493.42743,399.84583,493.42743,400.84583,493.43744Z" transform="translate(-71.5 -242.99999)"/><path class="cls-3" d="M400.5,398H445V375.17889A418.86327,418.86327,0,0,0,400,373a422.42117,422.42117,0,0,0-44,2.06934V398Z" transform="translate(-71.5 -242.99999)"/><path class="cls-4" d="M491.17419,501.653a448.736,448.736,0,0,0-87.32836-8.22559c-1,0-2,0-3,.01-1-.01-2-.01-3-.01a447.50867,447.50867,0,0,0-88.73523,8.50171C332.17413,524.29749,364.37042,541,400,541,435.77625,541,468.09137,524.16,491.17419,501.653Z" transform="translate(-71.5 -242.99999)"/><ellipse class="cls-5" cx="69" cy="184.00001" rx="69" ry="52"/><ellipse class="cls-5" cx="588" cy="184.00001" rx="69" ry="52"/></svg>