<svg id="图层_7" data-name="图层 7" xmlns="http://www.w3.org/2000/svg" viewBox="0 0 467.33381 222.56575"><defs><style>.cls-1{fill:#fff;}.cls-2{fill:none;stroke:#6b4821;stroke-linecap:round;stroke-linejoin:round;stroke-width:22px;}</style></defs><title>255，133，132</title><path class="cls-1" d="M622.73669,311.891c-18.55059-20.09643-47.02191-.13476-73.9541,23.33545a29.47466,29.47466,0,1,1-24.06994,21.61841c-22.09888,20.56518-20.85248,46.48926,3.06573,65.58765,8.99475,7.18237,17.78943,11.45385,26.22278,13.35327,29.51685,6.64843,54.60815-15.759,68.36658-44.11158S638.55164,329.02377,622.73669,311.891Z" transform="translate(-166.33308 -303.62224)"/><path d="M553.13647,393.89072a29.49993,29.49993,0,1,0-4.35388-58.66431c-7.9115,6.89453-15.69061,14.09082-23.0459,20.66455-.35278.31543-.68243.636-1.024.95386a29.51878,29.51878,0,0,0,28.42383,37.0459Z" transform="translate(-166.33308 -303.62224)"/><path class="cls-1" d="M177.26328,311.891c18.55059-20.09643,47.02191-.13476,73.9541,23.33545a29.47466,29.47466,0,1,0,24.06994,21.61841c22.09888,20.56518,20.85248,46.48926-3.06573,65.58765-8.99475,7.18237-17.78943,11.45385-26.22278,13.35327-29.51685,6.64843-54.60815-15.759-68.36658-44.11158S161.44833,329.02377,177.26328,311.891Z" transform="translate(-166.33308 -303.62224)"/><path d="M246.86349,393.89072a29.49993,29.49993,0,1,1,4.3539-58.66431c7.91152,6.89453,15.6906,14.09082,23.04589,20.66455.35278.31543.68243.636,1.024.95386a29.5188,29.5188,0,0,1-28.42383,37.0459Z" transform="translate(-166.33308 -303.62224)"/><polyline class="cls-2" points="154.417 211.566 235.417 139.216 312.917 208.44"/></svg>