<svg id="图层_2" data-name="图层 2" xmlns="http://www.w3.org/2000/svg" viewBox="0 0 1500 1500"><defs><style>.cls-1{fill:#6ebb9e;}.cls-2,.cls-4{fill:none;}.cls-2{stroke:#000;stroke-linecap:round;stroke-linejoin:round;stroke-width:22.64223px;opacity:0.45;}.cls-3{fill:#fff;}.cls-4{stroke:#6ebb9e;stroke-miterlimit:10;stroke-width:36px;}</style></defs><title>头像4.0</title><path class="cls-1" d="M1181.80323,493.84623q-.05073-100.75131-.06388-201.50262v-17.628H318.13627V511.85a198.25462,198.25462,0,0,1,29.85976-2.25094c108.61646,0,196.98195,88.36549,196.98195,196.97819,0,108.61646-88.36549,196.98195-196.98195,196.98195a197.84174,197.84174,0,0,1-29.85976-2.2547v237.13817H634.09879l-14.61046,38.98754a137.19487,137.19487,0,0,0-8.19772,36.10856q-.54958,6.1969-.55052,12.484c0,76.7876,62.474,139.26161,139.2616,139.26161s139.25785-62.474,139.25785-139.26161q0-3.14178-.1381-6.26337a137.49889,137.49889,0,0,0-8.61014-42.32919l-14.61046-38.98754H1147.4491A590.69333,590.69333,0,0,0,1181.668,941.27661C1181.93851,792.14693,1181.87087,640.4995,1181.80323,493.84623Z"/><path class="cls-2" d="M790.20592,886.46035c-.00239.065-.00716.13036-.00721.19617-.02108,24.98318,29.30054,48.20478,65.55946,50.05339,40.12517,2.04586,76.4059-25.06,76.4059-48.38707,0-.53926.00275-1.05293.004-1.54271"/><circle class="cls-3" cx="1033.15271" cy="654.35283" r="124.34874"/><circle cx="1033.15271" cy="654.35283" r="89.11994"/><circle class="cls-3" cx="689.21406" cy="654.35283" r="124.34874"/><circle cx="689.21406" cy="654.35283" r="89.11994"/><path class="cls-1" d="M729.53067,621.81493a5.92338,5.92338,0,0,0-1.52887-2.45475,6.2545,6.2545,0,0,0-5.81335-1.51758l-1.63917.3675-.85915-1.44354a6.2545,6.2545,0,0,0-5.09671-3.18145,5.92328,5.92328,0,0,0-2.83406.57561c-10.06666,4.81016,2.67419,18.2487,2.67419,18.2487S732.95172,632.43432,729.53067,621.81493Z"/><path class="cls-1" d="M672.35758,662.86274a9.723,9.723,0,0,0-4.71685.53415,10.26655,10.26655,0,0,0-6.35055,7.54544l-.61175,2.68872-2.74563.25494a10.26654,10.26654,0,0,0-8.311,5.30943,9.72307,9.72307,0,0,0-1.14631,4.60652c.02722,18.31357,28.93343,8.911,28.93343,8.911S690.51037,665.2843,672.35758,662.86274Z"/><path class="cls-1" d="M1073.46962,621.81493a5.92339,5.92339,0,0,0-1.52888-2.45475,6.25449,6.25449,0,0,0-5.81335-1.51758l-1.63917.3675-.85914-1.44354a6.25452,6.25452,0,0,0-5.09671-3.18145,5.92332,5.92332,0,0,0-2.83407.57561c-10.06665,4.81016,2.67419,18.2487,2.67419,18.2487S1076.89067,632.43432,1073.46962,621.81493Z"/><path class="cls-1" d="M1016.29653,662.86274a9.72294,9.72294,0,0,0-4.71685.53415,10.26656,10.26656,0,0,0-6.35056,7.54544l-.61175,2.68872-2.74562.25494a10.26653,10.26653,0,0,0-8.311,5.30943,9.723,9.723,0,0,0-1.14631,4.60652c.02722,18.31357,28.93343,8.911,28.93343,8.911S1034.44931,665.2843,1016.29653,662.86274Z"/><circle class="cls-4" cx="750" cy="750" r="701.8822"/></svg>