<svg xmlns="http://www.w3.org/2000/svg" xmlns:xlink="http://www.w3.org/1999/xlink" width="414" height="896" viewBox="0 0 414 896">
  <defs>
    <style>
      .cls-1 {
        clip-path: url(#clip-聊天界面_2);
      }

      .cls-10, .cls-2, .cls-7 {
        fill: #fff;
      }

      .cls-2 {
        stroke: #fff;
      }

      .cls-3, .cls-4, .cls-9 {
        fill: #707070;
      }

      .cls-3 {
        stroke: #707070;
      }

      .cls-11, .cls-5 {
        fill: #80baa1;
      }

      .cls-6 {
        fill: #b5b5b5;
      }

      .cls-6, .cls-9 {
        font-size: 16px;
        font-family: PingFangSC-Regular, PingFang SC;
      }

      .cls-8 {
        fill: #cff4d1;
      }

      .cls-10 {
        stroke: #cff4d1;
        stroke-width: 2px;
      }

      .cls-11 {
        font-size: 26px;
        font-family: PingFangSC-Semibold, PingFang SC;
        font-weight: 600;
      }

      .cls-12 {
        stroke: none;
      }

      .cls-13 {
        fill: none;
      }

      .cls-14 {
        fill: #f5fbf5;
      }

      .cls-15 {
        filter: url(#矩形_48);
      }

      .cls-16 {
        filter: url(#矩形_47);
      }

      .cls-17 {
        filter: url(#矩形_5);
      }
    </style>
    <filter id="矩形_5" x="-9" y="38" width="432" height="82" filterUnits="userSpaceOnUse">
      <feOffset dy="3" input="SourceAlpha"/>
      <feGaussianBlur stdDeviation="3" result="blur"/>
      <feFlood flood-opacity="0.02"/>
      <feComposite operator="in" in2="blur"/>
      <feComposite in="SourceGraphic"/>
    </filter>
    <filter id="矩形_47" x="13" y="140" width="147" height="60" filterUnits="userSpaceOnUse">
      <feOffset dy="3" input="SourceAlpha"/>
      <feGaussianBlur stdDeviation="3" result="blur-2"/>
      <feFlood flood-opacity="0.02"/>
      <feComposite operator="in" in2="blur-2"/>
      <feComposite in="SourceGraphic"/>
    </filter>
    <filter id="矩形_48" x="270" y="198" width="131" height="60" filterUnits="userSpaceOnUse">
      <feOffset dy="3" input="SourceAlpha"/>
      <feGaussianBlur stdDeviation="3" result="blur-3"/>
      <feFlood flood-opacity="0.039"/>
      <feComposite operator="in" in2="blur-3"/>
      <feComposite in="SourceGraphic"/>
    </filter>
    <clipPath id="clip-聊天界面_2">
      <rect width="414" height="896"/>
    </clipPath>
  </defs>
  <g id="聊天界面_2" data-name="聊天界面 – 2" class="cls-1">
    <rect class="cls-14" width="414" height="896"/>
    <g class="cls-17" transform="matrix(1, 0, 0, 1, 0, 0)">
      <g id="矩形_5-2" data-name="矩形 5" class="cls-2" transform="translate(0 44)">
        <rect class="cls-12" width="414" height="64"/>
        <rect class="cls-13" x="0.5" y="0.5" width="413" height="63"/>
      </g>
    </g>
    <g id="矩形_4" data-name="矩形 4" class="cls-3">
      <rect class="cls-12" width="414" height="44"/>
      <rect class="cls-13" x="0.5" y="0.5" width="413" height="43"/>
    </g>
    <circle id="椭圆_6" data-name="椭圆 6" class="cls-4" cx="22.5" cy="22.5" r="22.5" transform="translate(185 53)"/>
    <path id="联合_5" data-name="联合 5" class="cls-5" d="M20.174,31a4,4,0,0,1-4-4V18.174a2,2,0,0,1,2-2H27a4,4,0,0,1,4,4V27a4,4,0,0,1-4,4ZM4,31a4,4,0,0,1-4-4V20.174a4,4,0,0,1,4-4h8.826a2,2,0,0,1,2,2V27a4,4,0,0,1-4,4ZM18.174,14.826a2,2,0,0,1-2-2V4a4,4,0,0,1,4-4H27a4,4,0,0,1,4,4v6.827a4,4,0,0,1-4,4ZM4,14.826a4,4,0,0,1-4-4V4A4,4,0,0,1,4,0h6.827a4,4,0,0,1,4,4v8.826a2,2,0,0,1-2,2Z" transform="translate(22 813)"/>
    <text id="Sun_11.22_2:11" data-name="Sun 11.22 2:11" class="cls-6" transform="translate(156 133)"><tspan x="0" y="0">Sun 11.22 2:11</tspan></text>
    <g class="cls-16" transform="matrix(1, 0, 0, 1, 0, 0)">
      <path id="矩形_47-2" data-name="矩形 47" class="cls-7" d="M10,0H119a10,10,0,0,1,10,10V32a10,10,0,0,1-10,10H0a0,0,0,0,1,0,0V10A10,10,0,0,1,10,0Z" transform="translate(22 146)"/>
    </g>
    <g class="cls-15" transform="matrix(1, 0, 0, 1, 0, 0)">
      <path id="矩形_48-2" data-name="矩形 48" class="cls-8" d="M10,0h93a10,10,0,0,1,10,10V42a0,0,0,0,1,0,0H10A10,10,0,0,1,0,32V10A10,10,0,0,1,10,0Z" transform="translate(279 204)"/>
    </g>
    <text id="你好_我是小U" data-name="你好，我是小U" class="cls-9" transform="translate(33 173)"><tspan x="0" y="0">你好，我是小U</tspan></text>
    <text id="你好_小U_" data-name="你好，小U～" class="cls-9" transform="translate(290 231)"><tspan x="0" y="0">你好，小U～</tspan></text>
    <g id="矩形_6" data-name="矩形 6" class="cls-10" transform="translate(100 805)">
      <rect class="cls-12" width="215" height="47" rx="5"/>
      <rect class="cls-13" x="1" y="1" width="213" height="45" rx="4"/>
    </g>
    <path id="联合_2" data-name="联合 2" class="cls-4" d="M-475.285,19.3l-8.005-7.534A2.437,2.437,0,0,1-484,9.887a2.435,2.435,0,0,1,.707-1.88l8.005-7.535a1.646,1.646,0,0,1,2.593.384,2.54,2.54,0,0,1-.319,3.122l-4.048,3.81h12.833A2.225,2.225,0,0,1-462,10.012a2.225,2.225,0,0,1-2.226,2.225h-12.564l3.779,3.556a2.543,2.543,0,0,1,.319,3.124,1.751,1.751,0,0,1-1.457.855A1.65,1.65,0,0,1-475.285,19.3Z" transform="translate(506 66)"/>
    <text id="哇_好棒啊_" data-name="哇，好棒啊！" class="cls-11" transform="translate(130 838)"><tspan x="0" y="0">哇，好棒啊！</tspan></text>
  </g>
</svg>
